<svg width="297" height="46" viewBox="0 0 297 46" fill="none" xmlns="http://www.w3.org/2000/svg">
<path d="M147.045 20.0645C159.587 12.1692 172.304 5.48852 185 1.27637e-05C174.222 9.31248 162.496 18.0401 149.955 25.9355C137.413 33.8533 124.696 40.534 112 46C122.778 36.6875 134.504 27.9599 147.045 20.0645Z" fill="#FF3129"/>
<path d="M288.975 14.162V32.102L292.634 33.804V35H281.366V33.804L285.025 32.102V14.162H280.451L278.331 19.084H277V12H297V19.084H295.669L293.549 14.162H288.975Z" fill="#333333"/>
<path d="M252 23.0939H238.345C238.262 25.9673 238.924 28.229 240.331 29.8791C241.793 31.5007 243.834 32.3115 246.455 32.3115C247.669 32.3115 249.324 32.1408 251.421 31.7994L251.669 33.2504L248.814 34.1465C246.883 34.7155 245.255 35 243.931 35C240.731 35 238.262 33.9616 236.524 31.8848C234.841 29.8933 234 27.3755 234 24.3314C234 20.633 235.117 17.6743 237.352 15.4552C239.145 13.6913 241.338 12.8094 243.931 12.8094C246.607 12.8094 248.676 13.734 250.138 15.5832C250.634 16.2091 251.021 16.963 251.297 17.845C251.6 18.6984 251.779 19.3954 251.834 19.936C251.89 20.4481 251.931 21.1593 251.959 22.0697L252 23.0939ZM238.386 21.7283L247.655 20.8321C247.71 18.3855 247.228 16.6501 246.207 15.6259C245.517 14.9431 244.621 14.6017 243.517 14.6017C241.697 14.6017 240.345 15.4694 239.462 17.2048C238.745 18.6558 238.386 20.1636 238.386 21.7283ZM244.966 7.21906C244.966 5.73969 245.628 5 246.952 5C248.359 5 249.062 5.66856 249.062 7.00569C249.062 8.48506 248.372 9.22475 246.993 9.22475C245.641 9.22475 244.966 8.55619 244.966 7.21906ZM239.462 5C240.841 5 241.531 5.71124 241.531 7.13371C241.531 8.52774 240.841 9.22475 239.462 9.22475C238.11 9.22475 237.434 8.57041 237.434 7.26173C237.434 5.75391 238.11 5 239.462 5Z" fill="#333333"/>
<path d="M201.086 14.1196H195.724L195.508 17.7725C195.335 20.8092 195.018 23.6353 194.557 26.251C193.951 29.6183 192.885 31.9935 191.357 33.3765C190.204 34.4588 188.82 35 187.205 35C186.398 35 185.663 34.9399 185 34.8196V29.9039H187.465L188.978 32.7451C189.44 32.4444 189.829 32.0686 190.146 31.6176C190.665 30.9562 191.112 30.0392 191.486 28.8667C191.89 27.5438 192.25 25.5294 192.568 22.8235C192.769 20.9595 192.928 19.0503 193.043 17.0961L193.173 14.8863L189.411 13.2627V12H209V13.1725L205.195 14.8412V31.7078L209 33.3765V34.549H197.757V33.3765L201.086 31.7078V14.1196Z" fill="#333333"/>
<path d="M89.0262 12L95.0436 27.5615L101.061 12H110V13.1865L106.163 14.875V31.9425L110 33.631V34.8175H98.6628V33.631L102.02 31.9425V15.6964L94.5203 35H93.561L86.1047 15.7877V31.8968L89.5058 33.5397V34.8175H80V33.631L83.8372 31.9425V14.875L80 13.1865V12H89.0262Z" fill="#333333"/>
<path d="M61 33.5709L57.597 34.6874C56.9104 34.8958 56.2239 35 55.5373 35C54.0149 35 53.1493 34.2557 52.9403 32.767L52.6716 32.901C51.6269 33.4369 50.9104 33.7793 50.5224 33.9282C49.5075 34.3748 48.8507 34.6427 48.5522 34.732C47.9254 34.9107 47.2537 35 46.5373 35C44.4776 35 42.8507 34.4343 41.6567 33.3029C40.5522 32.2906 40 30.9657 40 29.3282C40 27.8097 40.4925 26.589 41.4776 25.666C42.2239 24.9217 43.3731 24.356 44.9254 23.9689C46.1791 23.6712 48.3582 23.3735 51.4627 23.0757L52.806 22.9417V17.6272C52.806 17.0317 52.7761 16.5702 52.7164 16.2427C52.6866 15.8854 52.5075 15.5133 52.1791 15.1262C51.8806 14.7392 51.4328 14.4414 50.8358 14.233C49.7313 13.9055 48.403 13.8013 46.8507 13.9204L44.8806 17.8058H42.1045V13.5631L45.1493 12.8039C47.4179 12.268 49.1343 12 50.2985 12C52.2687 12 53.8806 12.4168 55.1343 13.2505C56.3881 14.0841 57.0149 15.4984 57.0149 17.4932V30.0874C57.0149 30.7424 57.0896 31.1443 57.2388 31.2932C57.4179 31.5016 57.791 31.6803 58.3582 31.8291L61 32.5884V33.5709ZM52.806 31.8291V24.2369L51.0597 24.5049C49.5373 24.743 48.4776 24.9515 47.8806 25.1301C46.8955 25.3981 46.1642 25.7405 45.6866 26.1573C45 26.7528 44.6567 27.6013 44.6567 28.7029C44.6567 29.7748 45.0299 30.6531 45.7761 31.3379C46.5821 32.0822 47.7761 32.4544 49.3582 32.4544C50.403 32.4544 51.4627 32.2757 52.5373 31.9184L52.806 31.8291Z" fill="#333333"/>
<path d="M16.7133 31.7269L17 33.1865L15.4843 33.7173C14.0096 34.2186 12.9582 34.5282 12.3301 34.6462C11.1285 34.8821 10.1317 35 9.33976 35C6.47229 35 4.17831 33.9532 2.45783 31.8596C0.819277 29.884 0 27.2744 0 24.0308C0 20.0795 1.31084 16.9538 3.93253 14.6538C6.00803 12.8846 8.54779 12 11.5518 12C13.3542 12 15.1157 12.3391 16.8361 13.0173V17.75H14.2554L12.3711 13.6365C10.1317 13.4006 8.23374 14.1083 6.67711 15.7596C4.92932 17.6173 4.05542 19.991 4.05542 22.8808C4.05542 25.7705 4.73815 28.0558 6.10361 29.7365C7.46908 31.4468 9.43534 32.3019 12.0024 32.3019C13.3406 32.3019 14.9108 32.1103 16.7133 31.7269Z" fill="#333333"/>
</svg>
