<svg width="1375" height="299" viewBox="0 0 1375 299" fill="none" xmlns="http://www.w3.org/2000/svg">
<path d="M694.141 142C709.458 142 721.858 147.234 731.339 157.703C741.113 168.471 746 182.305 746 199.205C746 215.657 741.04 229.715 731.121 241.38C720.618 253.793 707.27 260 691.078 260C675.761 260 663.288 254.766 653.661 244.297C643.887 233.678 639 219.919 639 203.019C639 185.521 643.814 171.089 653.442 159.722C663.653 147.907 677.22 142 694.141 142ZM691.515 152.544C683.492 152.544 676.928 155.61 671.822 161.741C665.112 170.266 661.757 182.904 661.757 199.654C661.757 213.413 663.945 224.63 668.321 233.304C673.718 244.072 682.106 249.456 693.485 249.456C704.279 249.456 712.23 244.371 717.335 234.202C721.274 226.873 723.243 216.629 723.243 203.468C723.243 188.063 720.691 175.949 715.585 167.125C709.896 157.404 701.873 152.544 691.515 152.544Z" fill="white" fill-opacity="0.1"/>
<path d="M686.462 192.439C738.517 160 791.304 132.551 844 110C799.264 148.262 750.593 184.121 698.538 216.561C646.483 249.093 593.696 276.542 541 299C585.736 260.738 634.407 224.879 686.462 192.439Z" fill="#FF3129"/>
<path d="M1336.48 164.682V245.022L1354.04 252.644V258H1299.96V252.644L1317.52 245.022V164.682H1295.57L1285.39 186.724H1279V155H1375V186.724H1368.61L1358.43 164.682H1336.48Z" fill="#333333"/>
<path d="M1159 203.248H1090.72C1090.31 216.944 1093.62 227.725 1100.66 235.59C1107.97 243.32 1118.17 247.185 1131.28 247.185C1137.34 247.185 1145.62 246.371 1156.1 244.744L1157.34 251.66L1143.07 255.932C1133.41 258.644 1125.28 260 1118.66 260C1102.66 260 1090.31 255.05 1081.62 245.151C1073.21 235.658 1069 223.657 1069 209.147C1069 191.517 1074.59 177.414 1085.76 166.836C1094.72 158.429 1105.69 154.225 1118.66 154.225C1132.03 154.225 1142.38 158.632 1149.69 167.447C1152.17 170.43 1154.1 174.024 1155.48 178.228C1157 182.296 1157.9 185.618 1158.17 188.195C1158.45 190.636 1158.66 194.026 1158.79 198.366L1159 203.248ZM1090.93 196.738L1137.28 192.467C1137.55 180.804 1135.14 172.532 1130.03 167.65C1126.59 164.395 1122.1 162.768 1116.59 162.768C1107.48 162.768 1100.72 166.904 1096.31 175.176C1092.72 182.092 1090.93 189.28 1090.93 196.738ZM1123.83 127.578C1123.83 120.526 1127.14 117 1133.76 117C1140.79 117 1144.31 120.187 1144.31 126.56C1144.31 133.612 1140.86 137.138 1133.97 137.138C1127.21 137.138 1123.83 133.951 1123.83 127.578ZM1096.31 117C1103.21 117 1106.66 120.39 1106.66 127.171C1106.66 133.816 1103.21 137.138 1096.31 137.138C1089.55 137.138 1086.17 134.019 1086.17 127.781C1086.17 120.594 1089.55 117 1096.31 117Z" fill="#333333"/>
<path d="M918.4 164.676H893.6L892.6 181.353C891.8 195.216 890.333 208.118 888.2 220.059C885.4 235.431 880.467 246.275 873.4 252.588C868.067 257.529 861.667 260 854.2 260C850.467 260 847.067 259.725 844 259.176V236.735H855.4L862.4 249.706C864.533 248.333 866.333 246.618 867.8 244.559C870.2 241.539 872.267 237.353 874 232C875.867 225.961 877.533 216.765 879 204.412C879.933 195.902 880.667 187.186 881.2 178.265L881.8 168.176L864.4 160.765V155H955V160.353L937.4 167.971V244.971L955 252.588V257.941H903V252.588L918.4 244.971V164.676Z" fill="#333333"/>
<path d="M430.423 155L458.705 226.042L486.987 155H529V160.417L510.965 168.125V246.042L529 253.75V259.167H475.715V253.75L491.496 246.042V171.875L456.246 260H451.737L416.692 172.292V245.833L432.677 253.333V259.167H388V253.75L406.035 246.042V168.125L388 160.417V155H430.423Z" fill="#333333"/>
<path d="M295 253.476L279.444 258.573C276.305 259.524 273.166 260 270.028 260C263.068 260 259.111 256.602 258.156 249.806L256.928 250.417C252.151 252.864 248.876 254.427 247.102 255.107C242.463 257.146 239.461 258.369 238.096 258.777C235.23 259.592 232.16 260 228.885 260C219.469 260 212.032 257.417 206.574 252.252C201.525 247.631 199 241.583 199 234.107C199 227.175 201.252 221.602 205.755 217.388C209.166 213.99 214.42 211.408 221.516 209.641C227.247 208.282 237.209 206.922 251.401 205.563L257.542 204.951V180.689C257.542 177.971 257.405 175.864 257.132 174.369C256.996 172.738 256.177 171.039 254.676 169.272C253.311 167.505 251.264 166.146 248.535 165.194C243.486 163.699 237.414 163.223 230.318 163.767L221.311 181.505H208.62V162.136L222.539 158.67C232.91 156.223 240.757 155 246.079 155C255.085 155 262.454 156.903 268.186 160.709C273.917 164.515 276.783 170.971 276.783 180.078V237.573C276.783 240.563 277.124 242.398 277.806 243.078C278.625 244.029 280.33 244.845 282.923 245.524L295 248.99V253.476ZM257.542 245.524V210.864L249.559 212.087C242.599 213.175 237.755 214.126 235.026 214.942C230.522 216.165 227.179 217.728 224.996 219.631C221.857 222.35 220.288 226.223 220.288 231.252C220.288 236.146 221.994 240.155 225.405 243.282C229.09 246.68 234.548 248.379 241.78 248.379C246.557 248.379 251.401 247.563 256.313 245.932L257.542 245.524Z" fill="#333333"/>
<path d="M86.5663 245.058L88 251.721L80.4217 254.144C73.0482 256.433 67.7912 257.846 64.6506 258.385C58.6426 259.462 53.6586 260 49.6988 260C35.3614 260 23.8916 255.221 15.2892 245.663C7.09639 236.644 3 224.731 3 209.923C3 191.885 9.55422 177.615 22.6627 167.115C33.0402 159.038 45.739 155 60.759 155C69.7711 155 78.5783 156.548 87.1807 159.644V181.25H74.2771L64.8554 162.471C53.6586 161.394 44.1687 164.625 36.3855 172.163C27.6466 180.644 23.2771 191.481 23.2771 204.673C23.2771 217.865 26.6908 228.298 33.5181 235.971C40.3454 243.779 50.1767 247.683 63.012 247.683C69.7028 247.683 77.5542 246.808 86.5663 245.058Z" fill="#333333"/>
<path d="M524.324 38.8851H513.181L503.44 56.1066H498.219L508.428 38.4955C501.778 36.885 498.453 33.1706 498.453 27.3521C498.453 25.3261 498.817 23.5597 499.544 22.0532C500.323 20.5466 501.206 19.4037 502.193 18.6245C503.232 17.8452 504.427 17.2218 505.778 16.7542C507.181 16.2867 508.324 16.001 509.207 15.8971C510.09 15.7932 510.973 15.7412 511.856 15.7412H529V56.1066H524.324V38.8851ZM524.324 34.9888V19.6375H513.804C506.895 19.6375 503.44 22.209 503.44 27.3521C503.44 29.7938 504.297 31.69 506.012 33.0407C507.778 34.3394 510.038 34.9888 512.791 34.9888H524.324Z" fill="#333333"/>
<path d="M460.862 15.7412V49.8726L483.928 15.7412H489.071V56.1066H484.395V21.9753L461.407 56.1066H456.186V15.7412H460.862Z" fill="#333333"/>
<path d="M417.322 15.7412H444.051V52.2104H448.103V66.6266H443.427V56.1066H413.582V66.6266H408.906V52.2104H412.491C415.712 46.34 417.322 38.2617 417.322 27.9755V15.7412ZM439.375 19.6375H421.92V28.521C421.92 33.6121 421.634 37.924 421.063 41.4566C420.543 44.9373 419.348 48.5219 417.478 52.2104H439.375V19.6375Z" fill="#333333"/>
<path d="M372.455 15.7412H377.676L390.612 50.4181L403.547 15.7412H408.613L393.573 55.5612C392.638 58.0548 391.91 59.951 391.391 61.2497C390.871 62.5485 390.17 64.0031 389.287 65.6136C388.456 67.276 387.677 68.4708 386.949 69.1981C386.222 69.9774 385.313 70.6268 384.222 71.1463C383.183 71.7177 382.04 72.0035 380.793 72.0035C379.287 72.0035 377.806 71.8216 376.351 71.458V67.0941C378.014 67.4058 379.313 67.5617 380.248 67.5617C381.806 67.5617 383.105 66.8084 384.144 65.3019C385.235 63.8472 386.56 60.8861 388.118 56.4183L372.455 15.7412Z" fill="#333333"/>
<path d="M337.062 15.7412H368.855V19.6375H355.296V56.1066H350.621V19.6375H337.062V15.7412Z" fill="#333333"/>
<path d="M331.634 28.4427H326.881C325.115 22.0528 321.114 18.8579 314.88 18.8579C310.413 18.8579 307.036 20.5463 304.75 23.923C302.464 27.2998 301.321 31.326 301.321 36.0015C301.321 40.729 302.438 44.7551 304.672 48.08C306.958 51.3528 310.361 52.9893 314.88 52.9893C318.309 52.9893 321.088 52.0282 323.218 50.106C325.348 48.1839 326.699 45.5344 327.27 42.1576H332.258C331.426 46.8332 329.53 50.5216 326.569 53.223C323.66 55.8725 319.764 57.1973 314.88 57.1973C308.75 57.1973 304.127 55.2491 301.01 51.3528C297.893 47.4566 296.334 42.3394 296.334 36.0015C296.334 30.0792 297.97 25.04 301.243 20.8839C304.568 16.7279 309.114 14.6499 314.88 14.6499C324.647 14.6499 330.232 19.2475 331.634 28.4427Z" fill="#333333"/>
<path d="M269.761 34.2876H289.476V38.9631H269.761V34.2876Z" fill="#333333"/>
<path d="M233.711 15.7412V32.6511H256.154V15.7412H260.829V56.1066H256.154V36.5473H233.711V56.1066H229.036V15.7412H233.711Z" fill="#333333"/>
<path d="M189.34 15.7407V49.8721L212.406 15.7407H217.549V56.1061H212.873V21.9747L189.885 56.1061H184.664V15.7407H189.34ZM189.885 1.79199H192.924C193.755 5.99997 196.483 8.10396 201.106 8.10396C205.626 8.10396 208.405 5.99997 209.444 1.79199H212.328C211.964 5.01291 210.743 7.45458 208.665 9.11699C206.639 10.7794 203.99 11.6106 200.717 11.6106C197.6 11.6106 195.054 10.7534 193.08 9.03907C191.158 7.27275 190.093 4.85706 189.885 1.79199Z" fill="#333333"/>
<path d="M167.785 34.9105C165.759 36.0015 161.732 36.7548 155.706 37.1704C148.121 37.6899 144.329 40.5472 144.329 45.7422C144.329 48.08 145.186 49.8722 146.901 51.1191C148.615 52.3659 150.667 52.9893 153.057 52.9893C157.109 52.9893 160.564 52.0022 163.421 50.0281C166.33 48.002 167.785 45.0668 167.785 41.2225V34.9105ZM145.965 27.9752H141.212C141.524 23.4555 143.186 20.1047 146.199 17.9228C149.212 15.7409 153.083 14.6499 157.81 14.6499C162.278 14.6499 165.836 15.637 168.486 17.6111C171.135 19.5852 172.46 22.7801 172.46 27.1959V49.1709C172.46 51.7165 173.161 52.9893 174.564 52.9893C175.032 52.9893 175.967 52.7555 177.369 52.2879V55.9504C175.811 56.4699 174.59 56.7297 173.707 56.7297C171.733 56.7297 170.304 56.3141 169.421 55.4829C168.538 54.5997 167.992 52.9373 167.785 50.4956H167.629C163.888 54.9634 158.953 57.1973 152.823 57.1973C149.031 57.1973 145.836 56.1842 143.238 54.1582C140.641 52.1321 139.342 49.2748 139.342 45.5863C139.342 38.7289 144.043 34.6768 153.446 33.43L162.408 32.2611C164.434 32.0013 165.836 31.5078 166.616 30.7805C167.395 30.0532 167.785 28.8064 167.785 27.0401C167.785 21.5853 164.434 18.8579 157.732 18.8579C154.252 18.8579 151.524 19.5592 149.55 20.9619C147.576 22.3126 146.381 24.6503 145.965 27.9752Z" fill="#333333"/>
<path d="M104.986 27.2738H100.466C100.778 23.5334 102.336 20.4943 105.141 18.1566C107.947 15.8188 111.323 14.6499 115.272 14.6499C120.207 14.6499 123.947 15.6889 126.493 17.7669C129.091 19.793 130.389 22.2606 130.389 25.1698C130.389 27.6115 129.636 29.6895 128.129 31.4039C126.675 33.0663 124.883 34.0793 122.753 34.443C125.35 35.0664 127.506 36.3652 129.22 38.3393C130.987 40.2614 131.87 42.6252 131.87 45.4305C131.87 49.2229 130.441 52.1321 127.584 54.1582C124.727 56.1842 120.778 57.1973 115.739 57.1973C110.804 57.1973 106.908 56.0024 104.05 53.6127C101.193 51.171 99.5567 47.7942 99.1411 43.4824H103.739C104.05 46.4955 105.271 48.8332 107.401 50.4956C109.531 52.1581 112.388 52.9893 115.973 52.9893C119.35 52.9893 121.999 52.3139 123.921 50.9632C125.896 49.5605 126.883 47.7423 126.883 45.5084C126.883 42.5992 125.947 40.3913 124.077 38.8847C122.259 37.3262 119.921 36.547 117.064 36.547H112.934V32.6507H117.999C119.921 32.6507 121.688 31.9494 123.298 30.5467C124.908 29.1441 125.714 27.5076 125.714 25.6374C125.714 21.1177 122.285 18.8579 115.428 18.8579C112.414 18.8579 110.103 19.5332 108.492 20.8839C106.882 22.1827 105.713 24.3127 104.986 27.2738Z" fill="#333333"/>
<path d="M62.4065 15.7412V49.8726L85.4725 15.7412H90.6155V56.1066H85.94V21.9753L62.952 56.1066H57.731V15.7412H62.4065Z" fill="#333333"/>
<path d="M10.6379 0H45.7823V51.5867H50.0682V68.9641H44.7693V56.1064H5.33898V68.9641H0.0400391V51.5867H4.17009C6.61176 46.3917 8.30015 41.82 9.23525 37.8718C10.1704 33.9236 10.6379 28.0532 10.6379 20.2606V0ZM40.4834 4.51968H15.9368V22.4426C15.9368 28.7805 15.4173 34.1574 14.3783 38.5731C13.3913 42.9889 11.8328 47.3268 9.70281 51.5867H40.4834V4.51968Z" fill="#333333"/>
</svg>
