# Blender 4.1.1
# www.blender.org
o Cube.002
v 0.091803 0.076774 0.181568
v 0.091803 -0.076774 0.181568
v 0.080288 0.083025 -0.489584
v 0.095088 -0.054443 -0.518744
v 0.000000 -0.129952 0.181568
v -0.000000 0.131677 -0.491528
v -0.000000 -0.103147 -0.538903
v 0.000000 0.129952 0.181568
v 0.092553 0.077555 0.514951
v 0.092553 -0.078050 0.514951
v 0.000000 -0.131940 0.514951
v 0.000000 0.118876 0.514951
v 0.089155 0.039411 0.624582
v 0.058806 -0.093215 0.646255
v 0.000000 -0.100450 0.809278
v 0.000000 0.065996 0.665215
v 0.111322 -0.000734 -0.501565
v 0.119523 0.000000 0.181568
v 0.120645 -0.000248 0.514951
v 0.111906 -0.025742 0.611510
v 0.000000 0.003984 0.758145
v 0.095088 -0.083025 -0.247554
v 0.095088 0.083025 -0.247554
v -0.000000 -0.140532 -0.247554
v -0.000000 0.140532 -0.247554
v 0.125065 0.000000 -0.247554
v 0.834498 -0.041847 -0.366459
v 0.821167 -0.078770 -0.366459
v 0.843378 -0.041847 -0.463213
v 0.830047 -0.078770 -0.463213
v 0.300521 -0.010349 0.046030
v 0.286836 -0.093374 -0.262129
v 0.316813 -0.010349 -0.262129
v 0.270544 -0.067369 0.046030
v 0.070252 0.034563 -0.629762
v 0.070252 -0.034563 -0.629762
v -0.000000 0.134370 -0.600878
v -0.000000 -0.078998 -0.613611
v 0.082732 0.000000 -0.629762
v 0.070252 0.034563 -0.667819
v 0.070252 -0.034563 -0.667819
v -0.000000 0.168371 -0.649447
v -0.000000 -0.058503 -0.667819
v 0.082732 0.000000 -0.667819
v 0.350006 -0.026040 -0.864450
v 0.009783 0.004416 -0.843166
v 0.004915 -0.034563 -0.843166
v -0.000000 0.019067 -0.844634
v -0.000000 -0.034389 -0.844634
v 0.017394 0.000000 -0.843166
v -0.000000 0.000000 -0.844634
v 0.357591 -0.011585 -0.864450
v 0.350006 -0.026040 -0.982909
v 0.357591 -0.011585 -0.982909
v 0.024643 -0.117391 0.181568
v 0.022460 0.118093 -0.491528
v 0.035817 -0.094842 -0.523148
v 0.024643 0.117391 0.181568
v 0.024494 -0.119211 0.514951
v 0.046399 0.105468 0.514951
v 0.029708 -0.079440 0.820204
v 0.053543 0.061313 0.639575
v 0.057168 -0.017959 0.734859
v 0.022460 -0.126948 -0.247554
v 0.022460 0.126948 -0.247554
v 0.016594 0.128715 -0.600878
v 0.016594 -0.073343 -0.613611
v 0.016594 0.162716 -0.649447
v 0.016594 -0.052848 -0.667819
v 0.008273 0.014362 -0.843715
v 0.001161 -0.034430 -0.844287
v 0.004108 0.000000 -0.844287
v -0.000000 0.323314 -0.854073
v -0.000000 0.327342 -0.817529
v 0.006366 0.324863 -0.817392
v 0.005841 0.320895 -0.853877
v 0.015734 0.098128 -0.678952
v -0.000000 0.184282 -0.850328
v 0.010829 0.183149 -0.849771
v 0.000000 -0.133546 0.679074
v 0.027611 -0.113436 0.667338
v 0.000000 -0.070647 0.833584
v 0.027131 -0.092327 0.807852
v -0.091803 0.076774 0.181568
v -0.091803 -0.076774 0.181568
v -0.080288 0.083025 -0.489584
v -0.095088 -0.054443 -0.518744
v -0.092553 0.077555 0.514951
v -0.092553 -0.078050 0.514951
v -0.089154 0.039411 0.624582
v -0.058806 -0.093215 0.646255
v -0.111322 -0.000734 -0.501565
v -0.119523 0.000000 0.181568
v -0.120644 -0.000248 0.514951
v -0.111906 -0.025742 0.611510
v -0.095088 -0.083025 -0.247554
v -0.095088 0.083025 -0.247554
v -0.125065 0.000000 -0.247554
v -0.834498 -0.041847 -0.366458
v -0.821167 -0.078770 -0.366458
v -0.843378 -0.041847 -0.463213
v -0.830047 -0.078770 -0.463213
v -0.300521 -0.010349 0.046030
v -0.286836 -0.093374 -0.262129
v -0.316813 -0.010349 -0.262129
v -0.270544 -0.067369 0.046030
v -0.070253 0.034563 -0.629762
v -0.070253 -0.034563 -0.629762
v -0.082732 0.000000 -0.629762
v -0.070253 0.034563 -0.667819
v -0.070253 -0.034563 -0.667819
v -0.082732 0.000000 -0.667819
v -0.350006 -0.026040 -0.864449
v -0.009784 0.004416 -0.843166
v -0.004915 -0.034563 -0.843166
v -0.017395 0.000000 -0.843166
v -0.357591 -0.011585 -0.864449
v -0.350006 -0.026040 -0.982909
v -0.357592 -0.011585 -0.982909
v -0.024643 -0.117391 0.181568
v -0.022461 0.118093 -0.491528
v -0.035817 -0.094842 -0.523148
v -0.024643 0.117391 0.181568
v -0.024494 -0.119211 0.514951
v -0.046399 0.105468 0.514951
v -0.029707 -0.079440 0.820204
v -0.053543 0.061313 0.639575
v -0.057168 -0.017959 0.734859
v -0.022461 -0.126948 -0.247554
v -0.022461 0.126948 -0.247554
v -0.016594 0.128715 -0.600878
v -0.016594 -0.073343 -0.613611
v -0.016594 0.162716 -0.649447
v -0.016595 -0.052848 -0.667819
v -0.008273 0.014362 -0.843715
v -0.001161 -0.034430 -0.844287
v -0.004109 0.000000 -0.844287
v -0.006367 0.324863 -0.817392
v -0.005841 0.320895 -0.853877
v -0.015734 0.098128 -0.678952
v -0.010830 0.183149 -0.849771
v -0.027611 -0.113436 0.667338
v -0.027130 -0.092327 0.807852
vn 0.7738 0.6334 0.0060
vn 0.6445 -0.7451 0.1716
vn 0.7974 0.5944 -0.1038
vn 0.7934 -0.5837 -0.1725
vn -0.0000 -1.0000 0.0081
vn -0.0000 1.0000 0.0066
vn -0.0000 -0.9729 -0.2312
vn -0.0000 0.9998 0.0223
vn 0.7642 0.6349 0.1133
vn 0.7647 -0.6438 0.0280
vn -0.0000 -1.0000 0.0005
vn -0.0000 0.9847 0.1742
vn 0.7948 0.5148 0.3213
vn 0.7682 -0.6246 0.1405
vn -0.0000 -0.8674 0.4977
vn -0.0000 0.8699 0.4932
vn 0.9911 0.0288 -0.1298
vn 0.9549 0.1720 0.2420
vn 0.9979 -0.0078 0.0635
vn 0.9716 -0.0703 0.2259
vn -0.0000 0.7603 0.6496
vn 0.5178 -0.8227 -0.2348
vn 0.7743 0.6327 -0.0152
vn -0.0000 -0.9989 -0.0460
vn -0.0000 1.0000 -0.0067
vn 0.8209 0.4316 -0.3741
vn 0.7950 0.4651 0.3894
vn 0.5719 -0.7296 0.3750
vn 0.6276 0.4479 -0.6369
vn 0.3832 -0.6199 -0.6848
vn 0.5118 0.5913 0.6233
vn -0.1079 -0.7487 -0.6541
vn -0.1113 0.7737 -0.6237
vn 0.3755 -0.7720 0.5129
vn 0.8717 0.4727 -0.1292
vn 0.7649 -0.6157 -0.1895
vn -0.0000 0.9372 0.3488
vn -0.0000 -0.9450 -0.3271
vn 0.9929 0.0267 -0.1161
vn 0.8547 0.4774 -0.2039
vn 0.5709 -0.8156 0.0949
vn -0.0000 0.7689 0.6393
vn -0.0000 -0.9681 -0.2504
vn 0.9465 0.2737 0.1707
vn 0.5674 -0.7468 0.3469
vn 0.6007 0.3467 -0.7204
vn 0.1018 -0.7352 -0.6701
vn -0.0000 -0.0223 -0.9998
vn -0.0000 -0.5703 -0.8214
vn 0.2329 0.5349 -0.8122
vn -0.0000 -0.0007 -1.0000
vn 0.8172 0.4491 0.3613
vn 0.2586 -0.6286 -0.7335
vn 0.6279 0.3940 -0.6712
vn 0.4948 -0.8690 0.0066
vn 0.5653 0.8236 -0.0458
vn 0.4556 -0.8724 -0.1773
vn 0.4654 0.8850 0.0138
vn 0.5102 -0.8600 0.0063
vn 0.4130 0.8976 0.1540
vn 0.6359 -0.1932 0.7472
vn 0.5103 0.7598 0.4029
vn 0.8042 0.2938 0.5167
vn 0.4782 -0.8775 -0.0376
vn 0.5096 0.8604 -0.0067
vn 0.6951 0.7155 0.0701
vn 0.4006 -0.8712 -0.2837
vn 0.8155 0.4588 0.3528
vn 0.3404 -0.9203 -0.1929
vn 0.5864 0.2047 -0.7837
vn 0.2812 -0.6270 -0.7265
vn 0.1265 0.0040 -0.9920
vn -0.0000 0.7287 -0.6848
vn -0.0000 0.9575 0.2883
vn 0.7362 0.6364 0.2302
vn 0.6590 0.4151 -0.6272
vn 0.9499 0.2810 -0.1366
vn -0.0000 -0.0314 -0.9995
vn 0.7207 -0.0113 -0.6932
vn -0.0000 -0.9927 0.1207
vn 0.5851 -0.8060 0.0898
vn -0.0000 0.1220 0.9925
vn 0.5192 -0.7727 0.3653
vn -0.7738 0.6334 0.0060
vn -0.6445 -0.7451 0.1716
vn -0.7974 0.5944 -0.1038
vn -0.7934 -0.5837 -0.1725
vn -0.7642 0.6349 0.1133
vn -0.7647 -0.6438 0.0280
vn -0.7948 0.5148 0.3213
vn -0.7682 -0.6246 0.1405
vn -0.9911 0.0288 -0.1298
vn -0.9549 0.1720 0.2420
vn -0.9979 -0.0078 0.0635
vn -0.9716 -0.0703 0.2259
vn -0.5178 -0.8227 -0.2348
vn -0.7743 0.6327 -0.0152
vn -0.8209 0.4316 -0.3741
vn -0.7950 0.4651 0.3894
vn -0.5719 -0.7296 0.3750
vn -0.6276 0.4479 -0.6369
vn -0.3832 -0.6199 -0.6848
vn -0.5118 0.5913 0.6233
vn 0.1079 -0.7487 -0.6541
vn 0.1113 0.7737 -0.6237
vn -0.3755 -0.7720 0.5129
vn -0.8717 0.4727 -0.1292
vn -0.7649 -0.6157 -0.1895
vn -0.9929 0.0267 -0.1161
vn -0.8547 0.4774 -0.2039
vn -0.5709 -0.8156 0.0949
vn -0.9465 0.2737 0.1707
vn -0.5674 -0.7468 0.3469
vn -0.6007 0.3467 -0.7204
vn -0.1018 -0.7352 -0.6701
vn -0.2329 0.5349 -0.8122
vn -0.8172 0.4491 0.3613
vn -0.2586 -0.6286 -0.7335
vn -0.6279 0.3940 -0.6712
vn -0.4948 -0.8690 0.0066
vn -0.5653 0.8236 -0.0458
vn -0.4556 -0.8724 -0.1773
vn -0.4654 0.8850 0.0138
vn -0.5102 -0.8600 0.0063
vn -0.4130 0.8976 0.1540
vn -0.6359 -0.1932 0.7472
vn -0.5103 0.7598 0.4029
vn -0.8042 0.2938 0.5167
vn -0.4782 -0.8775 -0.0376
vn -0.5096 0.8604 -0.0067
vn -0.6951 0.7155 0.0701
vn -0.4006 -0.8712 -0.2837
vn -0.8155 0.4588 0.3528
vn -0.3404 -0.9203 -0.1929
vn -0.5864 0.2047 -0.7837
vn -0.2812 -0.6270 -0.7265
vn -0.1265 0.0040 -0.9920
vn -0.7362 0.6364 0.2302
vn -0.6590 0.4151 -0.6272
vn -0.9499 0.2810 -0.1366
vn -0.7207 -0.0113 -0.6932
vn -0.5851 -0.8060 0.0898
vn -0.5192 -0.7727 0.3653
vt 0.779526 0.645416
vt 0.875000 0.645415
vt 0.875000 0.750000
vt 0.779526 0.750000
vt 0.779526 0.750000
vt 0.500000 0.104585
vt 0.625000 0.104585
vt 0.625000 0.250000
vt 0.500000 0.250000
vt 0.779526 0.500000
vt 0.750000 0.500000
vt 0.810254 0.500000
vt 0.220474 0.645415
vt 0.250000 0.645415
vt 0.250000 0.750000
vt 0.220474 0.750000
vt 0.220474 0.500000
vt 0.125000 0.500000
vt 0.220474 0.500000
vt 0.756648 0.500000
vt 0.820585 0.500000
vt 0.375000 0.250000
vt 0.500000 0.250000
vt 0.220474 0.750000
vt 0.000000 0.000000
vt 0.375000 0.000000
vt 0.500000 0.000000
vt 0.375000 0.104585
vt 0.250000 0.500000
vt 0.625000 0.000000
vt 0.875000 0.500000
vt 0.444410 0.104585
vt 0.444410 0.250000
vt 0.125000 0.645415
vt 0.125000 0.632966
vt 0.125000 0.492617
vt 0.125000 0.645415
vt 0.808988 0.750000
vt 0.220474 0.750000
vt 0.125000 0.750000
vt 0.500000 0.904526
vt 0.572929 0.953191
vt 0.541757 1.000000
vt 0.500000 1.000000
vt 0.375000 0.904526
vt 0.375000 1.000000
vt 0.541756 0.000000
vt 0.625000 0.875000
vt 0.593413 0.922432
vt 0.613897 0.891673
vt 0.375000 0.875000
vt 0.500000 0.875000
vt 0.750000 0.750000
vt 0.750000 0.645415
vt 0.771841 0.750000
vt 0.778379 0.750000
vt 0.830734 0.750000
vt 0.962763 0.750000
vt 0.883089 0.750000
vt 0.210712 0.500000
vt 0.187182 0.500000
vt 0.201085 0.500000
vt 0.239373 0.500000
s 1
f 65/1/65 23/2/23 3/3/3 56/4/56
f 56/4/56 3/3/3 35/3/35 66/5/66
f 26/6/26 23/7/23 1/8/1 18/9/18
f 58/10/58 8/11/8 12/11/12 60/12/60
f 64/13/64 24/14/24 7/15/7 57/16/57
f 18/9/18 1/8/1 9/8/9 19/9/19
f 55/17/55 2/18/2 10/18/10 59/19/59
f 60/12/60 12/11/12 16/20/16 62/21/62
f 19/9/19 9/8/9 13/8/13 20/9/20
f 10/22/10 19/9/19 20/9/20 14/22/14
f 2/22/2 18/9/18 19/9/19 10/22/10
f 33/6/33 31/23/31 27/9/27 29/6/29
f 57/16/57 7/15/7 38/15/38 67/24/67
f 63/25/63 20/25/20 13/25/13 62/25/62
f 4/26/4 17/27/17 26/6/26 22/28/22
f 55/17/55 5/29/5 24/14/24 64/13/64
f 17/27/17 3/30/3 23/7/23 26/6/26
f 58/10/58 1/31/1 23/2/23 65/1/65
f 30/32/30 29/6/29 27/9/27 28/33/28
f 34/18/34 32/34/32 30/35/30 28/36/28
f 22/28/22 26/6/26 33/6/33 32/28/32
f 31/23/31 34/22/34 28/33/28 27/9/27
f 26/6/26 18/9/18 31/23/31 33/6/33
f 18/9/18 2/22/2 34/22/34 31/23/31
f 2/18/2 22/37/22 32/34/32 34/18/34
f 39/27/39 36/26/36 41/26/41 44/27/44
f 66/5/66 35/3/35 40/3/40 77/38/77
f 3/30/3 17/27/17 39/27/39 35/30/35
f 17/27/17 4/26/4 36/26/36 39/27/39
f 69/16/69 43/15/43 49/15/49 71/39/71
f 41/40/41 47/40/47 53/40/53 45/40/45
f 67/24/67 38/15/38 43/15/43 69/16/69
f 35/30/35 39/27/39 44/27/44 40/30/40
f 72/41/72 70/42/70 46/43/46 50/44/50
f 71/45/71 72/41/72 50/44/50 47/46/47
f 40/30/40 44/27/44 50/27/50 46/47/46
f 70/42/70 48/48/48 78/48/78 79/49/79
f 52/27/52 45/26/45 53/26/53 54/27/54
f 44/27/44 41/26/41 45/26/45 52/27/52
f 47/46/47 50/44/50 54/44/54 53/46/53
f 50/27/50 44/27/44 52/27/52 54/27/54
f 79/49/79 78/48/78 73/48/73 76/50/76
f 49/51/49 51/52/51 72/41/72 71/45/71
f 51/52/51 48/48/48 70/42/70 72/41/72
f 36/40/36 67/24/67 69/16/69 41/40/41
f 41/40/41 69/16/69 71/39/71 47/40/47
f 37/53/37 66/5/66 68/5/68 42/53/42
f 8/11/8 58/10/58 65/1/65 25/54/25
f 2/18/2 55/17/55 64/13/64 22/37/22
f 21/25/21 63/25/63 62/25/62 16/25/16
f 4/40/4 57/16/57 67/24/67 36/40/36
f 9/31/9 60/12/60 62/21/62 13/31/13
f 5/29/5 55/17/55 59/19/59 11/29/11
f 22/37/22 64/13/64 57/16/57 4/40/4
f 1/31/1 58/10/58 60/12/60 9/31/9
f 6/53/6 56/4/56 66/5/66 37/53/37
f 25/54/25 65/1/65 56/4/56 6/53/6
f 74/53/74 75/55/75 76/56/76 73/53/73
f 42/53/42 68/5/68 75/55/75 74/53/74
f 68/5/68 66/5/66 77/38/77
f 75/55/75 68/5/68 79/57/79 76/56/76
f 46/58/46 70/59/70 77/38/77 40/3/40
f 68/5/68 77/38/77 70/59/70 79/57/79
f 32/28/32 33/6/33 29/6/29 30/32/30
f 61/25/61 14/25/14 20/25/20 63/25/63
f 61/25/61 63/25/63 21/25/21 82/25/82
f 11/29/11 59/19/59 81/60/81 80/29/80
f 59/19/59 10/18/10 14/18/14 81/60/81
f 15/25/15 83/25/83 61/25/61 82/25/82
f 81/60/81 14/18/14 61/61/61 83/62/83
f 81/60/81 83/62/83 15/63/15 80/29/80
f 130/1/130 121/4/121 86/3/86 97/2/97
f 121/4/121 131/5/131 107/3/107 86/3/86
f 98/6/98 93/9/93 84/8/84 97/7/97
f 123/10/123 125/12/125 12/11/12 8/11/8
f 129/13/129 122/16/122 7/15/7 24/14/24
f 93/9/93 94/9/94 88/8/88 84/8/84
f 120/17/120 124/19/124 89/18/89 85/18/85
f 125/12/125 127/21/127 16/20/16 12/11/12
f 94/9/94 95/9/95 90/8/90 88/8/88
f 89/22/89 91/22/91 95/9/95 94/9/94
f 85/22/85 89/22/89 94/9/94 93/9/93
f 105/6/105 101/6/101 99/9/99 103/23/103
f 122/16/122 132/24/132 38/15/38 7/15/7
f 128/25/128 127/25/127 90/25/90 95/25/95
f 87/26/87 96/28/96 98/6/98 92/27/92
f 120/17/120 129/13/129 24/14/24 5/29/5
f 92/27/92 98/6/98 97/7/97 86/30/86
f 123/10/123 130/1/130 97/2/97 84/31/84
f 102/32/102 100/33/100 99/9/99 101/6/101
f 106/18/106 100/36/100 102/35/102 104/34/104
f 96/28/96 104/28/104 105/6/105 98/6/98
f 103/23/103 99/9/99 100/33/100 106/22/106
f 98/6/98 105/6/105 103/23/103 93/9/93
f 93/9/93 103/23/103 106/22/106 85/22/85
f 85/18/85 106/18/106 104/34/104 96/37/96
f 109/27/109 112/27/112 111/26/111 108/26/108
f 131/5/131 140/38/140 110/3/110 107/3/107
f 86/30/86 107/30/107 109/27/109 92/27/92
f 92/27/92 109/27/109 108/26/108 87/26/87
f 134/16/134 136/39/136 49/15/49 43/15/43
f 111/40/111 113/40/113 118/40/118 115/40/115
f 132/24/132 134/16/134 43/15/43 38/15/38
f 107/30/107 110/30/110 112/27/112 109/27/109
f 137/41/137 116/44/116 114/43/114 135/42/135
f 136/45/136 115/46/115 116/44/116 137/41/137
f 110/30/110 114/47/114 116/27/116 112/27/112
f 135/42/135 141/49/141 78/48/78 48/48/48
f 117/27/117 119/27/119 118/26/118 113/26/113
f 112/27/112 117/27/117 113/26/113 111/26/111
f 115/46/115 118/46/118 119/44/119 116/44/116
f 116/27/116 119/27/119 117/27/117 112/27/112
f 141/49/141 139/50/139 73/48/73 78/48/78
f 49/51/49 136/45/136 137/41/137 51/52/51
f 51/52/51 137/41/137 135/42/135 48/48/48
f 108/40/108 111/40/111 134/16/134 132/24/132
f 111/40/111 115/40/115 136/39/136 134/16/134
f 37/53/37 42/53/42 133/5/133 131/5/131
f 8/11/8 25/54/25 130/1/130 123/10/123
f 85/18/85 96/37/96 129/13/129 120/17/120
f 21/25/21 16/25/16 127/25/127 128/25/128
f 87/40/87 108/40/108 132/24/132 122/16/122
f 88/31/88 90/31/90 127/21/127 125/12/125
f 5/29/5 11/29/11 124/19/124 120/17/120
f 96/37/96 87/40/87 122/16/122 129/13/129
f 84/31/84 88/31/88 125/12/125 123/10/123
f 6/53/6 37/53/37 131/5/131 121/4/121
f 25/54/25 6/53/6 121/4/121 130/1/130
f 74/53/74 73/53/73 139/56/139 138/55/138
f 42/53/42 74/53/74 138/55/138 133/5/133
f 133/5/133 140/38/140 131/5/131
f 138/55/138 139/56/139 141/57/141 133/5/133
f 114/58/114 110/3/110 140/38/140 135/59/135
f 133/5/133 141/57/141 135/59/135 140/38/140
f 104/28/104 102/32/102 101/6/101 105/6/105
f 126/25/126 128/25/128 95/25/95 91/25/91
f 126/25/126 82/25/82 21/25/21 128/25/128
f 11/29/11 80/29/80 142/60/142 124/19/124
f 124/19/124 142/60/142 91/18/91 89/18/89
f 15/25/15 82/25/82 126/25/126 143/25/143
f 142/60/142 143/62/143 126/61/126 91/18/91
f 142/60/142 80/29/80 15/63/15 143/62/143
