# Blender 3.5.1
# www.blender.org
mtllib plane_paper_2.mtl
o Cube.003
v 0.065829 -0.005698 -0.646874
v 0.025314 -0.005698 0.950615
v 0.000000 -0.454298 -0.646874
v 0.000000 -0.057668 0.950615
v 0.667446 -0.030445 -0.661225
v -0.065829 -0.005698 -0.646874
v -0.025314 -0.005698 0.950615
v -0.667446 -0.030445 -0.661225
v 0.070688 -0.014425 -0.646397
v 0.029509 -0.014775 0.950735
v 0.000000 -0.463895 -0.644066
v 0.000000 -0.067411 0.952866
v 0.666995 -0.040434 -0.661313
v -0.070688 -0.014425 -0.646397
v -0.029509 -0.014775 0.950735
v -0.666995 -0.040434 -0.661313
vn -0.0061 -0.0245 -0.9997
vn -0.0256 0.0076 -0.9996
vn -0.0026 0.0256 0.9997
vn -0.0538 0.1767 0.9828
vn -0.0538 0.1768 0.9828
vn 0.0256 0.0076 -0.9996
vn 0.0061 -0.0245 -0.9997
vn 0.0538 0.1767 0.9828
vn 0.0026 0.0256 0.9997
vn 0.0538 0.1768 0.9828
vn 0.8740 0.4782 -0.0857
vn 0.7530 0.6577 -0.0216
vn 0.9912 0.1288 -0.0298
vn 0.9945 0.1007 -0.0295
vn 0.0450 -0.9989 -0.0088
vn 0.0288 -0.9996 -0.0047
vn 0.0416 -0.9991 -0.0015
vn -0.9672 -0.2478 0.0549
vn -0.7661 -0.6424 0.0218
vn -0.9073 -0.4107 0.0899
vn -0.9846 -0.1694 0.0439
vn 0.0574 -0.0363 -0.9977
vn 0.0575 -0.0363 -0.9977
vn 0.2672 -0.0463 -0.9625
vn -0.0000 1.0000 -0.0000
vn -0.0451 0.9989 0.0087
vn -0.0574 -0.0363 -0.9977
vn -0.2672 -0.0463 -0.9625
vn -0.0575 -0.0363 -0.9977
vn -0.8740 0.4782 -0.0857
vn -0.9945 0.1007 -0.0295
vn -0.9912 0.1288 -0.0298
vn -0.7530 0.6577 -0.0216
vn 0.0451 0.9989 0.0087
vn -0.0288 -0.9996 -0.0047
vn -0.0450 -0.9989 -0.0087
vn -0.0416 -0.9991 -0.0015
vn -0.0069 0.0069 1.0000
vn -0.9334 -0.0483 0.3555
vn -0.0069 0.0070 1.0000
vn 0.0069 0.0070 1.0000
vn 0.9334 -0.0483 0.3555
vn 0.0069 0.0069 1.0000
vn 0.7661 -0.6424 0.0218
vn 0.9672 -0.2478 0.0549
vn 0.9846 -0.1694 0.0439
vn 0.9073 -0.4107 0.0899
vt 0.000000 0.000000
vt 0.853622 0.750000
vt 0.000000 0.000000
vt 0.853622 0.500000
vt 0.384152 0.875000
vt 0.384152 0.375000
vt 0.875000 0.750000
vt 0.853622 0.750000
vt 0.000000 0.000000
vt 0.000000 0.000000
vt 0.853622 0.500000
vt 0.875000 0.750000
vt 0.853622 0.750000
vt 0.000000 0.000000
vt 0.853622 0.500000
vt 0.000000 0.000000
vt 0.384152 0.875000
vt 0.384152 0.375000
vt 0.875000 0.750000
vt 0.853622 0.750000
vt 0.000000 0.000000
vt 0.000000 0.000000
vt 0.853622 0.500000
vt 0.875000 0.750000
s 0
f 1/2/1 5/7/2 13/19/2 9/13/1
f 2/3/3 4/6/4 12/18/5 10/16/3
f 8/12/6 6/8/7 14/20/7 16/24/6
f 4/6/8 7/10/9 15/22/9 12/18/10
f 6/9/11 7/10/12 4/6/13 3/5/14
f 16/24/15 14/20/16 15/23/17
f 12/18/18 15/22/19 14/21/20 11/17/21
f 1/1/22 9/14/23 11/17/24 3/5/24
f 7/11/25 6/8/25 8/12/26
f 6/9/27 3/5/28 11/17/28 14/21/29
f 1/1/30 3/5/31 4/6/32 2/3/33
f 2/4/25 5/7/34 1/2/25
f 9/13/35 13/19/36 10/15/37
f 7/11/38 8/12/39 16/24/39 15/23/40
f 10/15/41 13/19/42 5/7/42 2/4/43
f 10/16/44 12/18/45 11/17/46 9/14/47
