<svg width="156" height="40" viewBox="0 0 156 40" fill="none" xmlns="http://www.w3.org/2000/svg">
<path d="M52.9252 37.618C52.5193 38.182 51.7186 38.5524 50.8456 38.5524C49.1552 38.5524 48.082 37.4798 48.082 35.8211C48.082 34.2951 49.1274 33.0898 50.79 33.0898C51.7519 33.0898 52.4859 33.4935 52.8474 33.9745L52.397 34.4057C51.9855 33.9966 51.5073 33.7533 50.8067 33.7533C49.5611 33.7533 48.8105 34.6048 48.8105 35.8211C48.8105 37.0375 49.6445 37.8889 50.8901 37.8889C51.6296 37.8889 52.1579 37.5848 52.5249 37.1757L52.9196 37.618H52.9252Z" fill="#414042"/>
<path d="M54.2227 33.1641H58.0761V33.8054H54.9177V35.4641H57.8592V36.0999H54.9177V37.836H58.1428V38.4829H54.2227V33.1641Z" fill="#414042"/>
<path d="M59.2578 33.1641H63.6784V33.8054H61.8101V38.4829H61.115V33.8054H59.2578V33.1641Z" fill="#414042"/>
<path d="M65.6013 35.7864V37.8376H66.9525C67.8978 37.8376 68.426 37.4893 68.426 36.765C68.426 36.1126 67.9033 35.7864 66.9747 35.7864H65.5957H65.6013ZM65.6013 35.1395H67.0025C68.4483 35.1395 69.16 35.7311 69.16 36.765C69.16 37.8984 68.3315 38.4845 66.9358 38.4845H64.9062V33.1602H65.6013V35.1395Z" fill="#414042"/>
<path d="M73.75 33.1641H74.3895L76.4246 35.84L78.3874 33.1641H79.0158V38.4829H78.3207V34.3528L76.4913 36.8021H76.3245L74.4451 34.3528V38.4829H73.75V33.1641Z" fill="#414042"/>
<path d="M80.7422 33.1641H84.5956V33.8054H81.4372V35.4641H84.3787V36.0999H81.4372V37.836H84.6623V38.4829H80.7422V33.1641Z" fill="#414042"/>
<path d="M85.7734 33.1641H90.194V33.8054H88.3257V38.4829H87.6306V33.8054H85.7734V33.1641Z" fill="#414042"/>
<path d="M91.7187 36.5282H93.8206L92.7641 34.1121L91.7132 36.5282H91.7187ZM92.5083 33.1445H93.0588L95.4053 38.4799H94.6769L94.0819 37.1364H91.4574L90.868 38.4799H90.1562L92.5028 33.1445H92.5083Z" fill="#414042"/>
<path d="M100.519 33.807H98.211V34.1332C98.211 37.81 97.4381 38.4955 96.6819 38.4955C96.5818 38.4955 96.4706 38.49 96.3594 38.4845V37.8155C96.9321 37.8984 97.516 37.5335 97.516 34.0282V33.1602H101.219V38.4845H100.524V33.807H100.519Z" fill="#414042"/>
<path d="M106.581 33.807H104.274V34.1332C104.274 37.81 103.501 38.4955 102.744 38.4955C102.644 38.4955 102.528 38.49 102.422 38.4845V37.8155C102.995 37.8984 103.578 37.5335 103.578 34.0282V33.1602H107.282V38.4845H106.587V33.807H106.581Z" fill="#414042"/>
<path d="M111.4 37.8928C112.524 37.8928 113.386 37.0359 113.386 35.825C113.386 34.6142 112.468 33.7572 111.4 33.7572C110.333 33.7572 109.404 34.6087 109.404 35.825C109.404 37.0414 110.316 37.8928 111.4 37.8928ZM111.4 33.0938C112.907 33.0938 114.114 34.2327 114.114 35.825C114.114 37.4173 112.907 38.5563 111.4 38.5563C109.894 38.5563 108.676 37.4173 108.676 35.825C108.676 34.2327 109.871 33.0938 111.4 33.0938Z" fill="#414042"/>
<path d="M115.527 33.1641H116.222V37.836H119.203V33.1641H119.898V37.836H120.582V39.4559H119.915V38.4829H115.527V33.1641Z" fill="#414042"/>
<path d="M121.844 33.1641H125.697V33.8054H122.539V35.4641H125.48V36.0999H122.539V37.836H125.764V38.4829H121.844V33.1641Z" fill="#414042"/>
<path d="M131.055 36.1054H127.863V38.4829H127.168V33.1641H127.863V35.4586H131.055V33.1641H131.75V38.4829H131.055V36.1054Z" fill="#414042"/>
<path d="M132.984 33.1641H137.399V33.8054H135.537V38.4829H134.842V33.8054H132.984V33.1641Z" fill="#414042"/>
<path d="M139.324 33.807V35.8804H140.686C141.732 35.8804 142.188 35.4602 142.188 34.8244C142.188 34.2328 141.804 33.807 140.742 33.807H139.33H139.324ZM138.629 38.4845V33.1602H140.709C142.499 33.1602 142.905 34.0171 142.905 34.8354C142.905 35.6924 142.338 36.5217 140.703 36.5217H139.324V38.4845H138.629Z" fill="#414042"/>
<path d="M146.783 37.8928C147.906 37.8928 148.774 37.0359 148.774 35.825C148.774 34.6142 147.856 33.7572 146.783 33.7572C145.71 33.7572 144.787 34.6087 144.787 35.825C144.787 37.0414 145.699 37.8928 146.783 37.8928ZM146.783 33.0938C148.29 33.0938 149.497 34.2327 149.497 35.825C149.497 37.4173 148.29 38.5563 146.783 38.5563C145.276 38.5563 144.059 37.4173 144.059 35.825C144.059 34.2327 145.249 33.0938 146.783 33.0938Z" fill="#414042"/>
<path d="M151.601 36.0849V37.8431H153.025C153.998 37.8431 154.432 37.5612 154.432 36.9309C154.432 36.3669 154.026 36.0849 153.103 36.0849H151.601ZM151.601 33.8126V35.4546H153.125C153.809 35.4546 154.248 35.1506 154.248 34.6308C154.248 34.0835 153.942 33.807 153.008 33.807H151.601V33.8126ZM150.906 33.1657H153.069C154.521 33.1657 154.96 33.7241 154.96 34.4871C154.96 35.0732 154.676 35.4989 154.204 35.7034C154.782 35.8251 155.149 36.2674 155.149 36.964C155.149 38.0422 154.309 38.4845 153.03 38.4845H150.906V33.1602V33.1657Z" fill="#414042"/>
<path d="M19.3547 30.9246C12.8712 30.9246 7.61098 25.6888 7.61098 19.2476C7.61098 12.8064 12.8712 7.56505 19.3547 7.56505C25.8382 7.56505 31.0984 12.7954 31.0984 19.2421C31.0984 25.6888 25.8382 30.9191 19.3547 30.9191M34.0844 19.2421C34.0844 11.1699 27.4786 4.60156 19.3547 4.60156C11.2308 4.60156 4.625 11.1699 4.625 19.2421C4.625 27.3143 11.2308 33.8826 19.3547 33.8826C27.4786 33.8826 34.0844 27.3143 34.0844 19.2421Z" fill="#414042"/>
<path d="M19.356 0C8.66878 0 0 8.61954 0 19.2405C0 29.8615 8.66878 38.4866 19.356 38.4866C23.81 38.4866 27.9136 36.9883 31.1831 34.4671V38.4866H34.0802V26.5C33.4685 27.7163 32.7123 28.8553 31.8115 29.8947C30.805 31.0613 29.6373 32.0786 28.3473 32.9246C25.6727 34.6717 22.5588 35.595 19.3505 35.595C10.2813 35.595 2.90813 28.2637 2.90813 19.2461C2.90813 10.2285 10.2869 2.89161 19.356 2.89161C28.4251 2.89161 35.7983 10.2229 35.7983 19.2405V38.4811H38.6953C38.6953 38.4811 38.7065 19.4728 38.7065 19.2405C38.7065 8.61954 30.0377 0 19.356 0Z" fill="#414042"/>
<path d="M51.8828 15.9012C51.8828 11.4726 54.0514 9.18359 58.5387 9.18359H63.3263V10.8091H58.5387C55.1079 10.8091 53.6677 12.4567 53.6677 15.8625V25.14H51.8828V15.9012Z" fill="#414042"/>
<path d="M48.3828 15.8693C48.3828 9.38945 52.0194 5.90625 58.5418 5.90625H63.3294V7.56492L58.5418 7.5428C53.0425 7.50963 50.1622 10.4068 50.1622 15.8748V25.1523H48.3828V15.8693Z" fill="#414042"/>
<path d="M91.3086 14.3323V5.90625H93.0935V14.3655C93.0935 17.7768 94.6004 19.4244 97.692 19.4244V21.0554C93.5439 21.0554 91.3086 18.7665 91.3086 14.3378" fill="#414042"/>
<path d="M87.8047 14.3638V5.91016H89.5896V14.3694C89.584 19.8374 92.5311 22.7512 97.6912 22.7014V24.3324C91.5191 24.3324 87.8102 20.8492 87.8102 14.3694" fill="#414042"/>
<path d="M104.059 19.2419C104.059 23.6706 101.824 25.9651 97.6758 25.9595V24.3341C100.762 24.3341 102.274 22.6864 102.274 19.2806V5.90625H104.059V19.2419Z" fill="#414042"/>
<path d="M107.562 19.2806C107.562 25.7605 103.853 29.2437 97.6758 29.2437V27.6127C102.836 27.6624 105.783 24.7487 105.783 19.2806V5.90625H107.562V19.2806Z" fill="#414042"/>
<path d="M116.652 5.90625H114.867V25.1523H116.652V5.90625Z" fill="#414042"/>
<path d="M113.156 5.90625H111.371V25.1523H113.156V5.90625Z" fill="#414042"/>
<path d="M127.818 15.9019V25.1462H126.033V15.8687C126.033 12.4574 124.593 10.8153 121.162 10.8153H118.293V9.19535H121.162C125.649 9.18429 127.818 11.4788 127.818 15.9074" fill="#414042"/>
<path d="M131.321 15.8709V25.1484H129.536V15.8709C129.542 10.4029 126.661 7.48914 121.162 7.5389L118.293 7.56101V5.90234H121.162C127.679 5.90234 131.321 9.38555 131.321 15.8654" fill="#414042"/>
<path d="M140.152 5.90625H138.367V25.1523H140.152V5.90625Z" fill="#414042"/>
<path d="M136.656 5.90625H134.871V25.1523H136.656V5.90625Z" fill="#414042"/>
<path d="M151.322 15.9019V25.1462H149.537V15.8687C149.537 12.4574 148.097 10.8153 144.666 10.8153H141.797V9.19535H144.666C149.159 9.18429 151.322 11.4788 151.322 15.9074" fill="#414042"/>
<path d="M154.825 15.8709V25.1484H153.04V15.8709C153.051 10.4029 150.165 7.48914 144.666 7.5389L141.797 7.56101V5.90234H144.666C151.183 5.90234 154.825 9.38555 154.825 15.8654" fill="#414042"/>
<path d="M64.64 15.5673C64.64 9.8504 69.1885 5.28906 74.938 5.28906C80.6876 5.28906 85.236 9.80617 85.236 15.5286C85.236 21.251 80.6876 25.7017 74.938 25.7017C73.1476 25.7017 71.4683 25.3092 70.0114 24.4743V29.2402H68.2265L68.2099 20.6539C69.7279 22.6664 72.1355 24.0541 74.9325 24.0541C79.7256 24.0541 83.3677 20.2945 83.3677 15.5286C83.3677 10.7627 79.7256 6.93114 74.9325 6.93114C70.1393 6.93114 66.4917 10.7571 66.4917 15.5286L66.4805 29.2402H64.6289V15.5673H64.64ZM68.2099 15.5341C68.2099 11.7136 71.0957 8.5677 74.938 8.5677C78.7803 8.5677 81.6662 11.7136 81.6662 15.5341C81.6662 19.3546 78.7803 22.4342 74.938 22.4342C71.0957 22.4342 68.2099 19.3435 68.2099 15.5341ZM70.0726 15.5341C70.0726 18.3925 72.0688 20.7865 74.9436 20.7865C77.8184 20.7865 79.809 18.3925 79.809 15.5341C79.809 12.6757 77.8184 10.2153 74.9436 10.2153C72.0688 10.2153 70.0726 12.6757 70.0726 15.5341Z" fill="#414042"/>
</svg>
