<svg width="80" height="74" viewBox="0 0 80 74" fill="none" xmlns="http://www.w3.org/2000/svg">
<path d="M56.5254 47.8395V53.9143C56.5254 53.9143 56.5466 54.8704 55.9751 55.456L54.1406 57.3575L56.1197 59.3401L57.5344 57.7208C58.1341 57.0717 59.196 56.2003 59.196 54.4682L59.2101 50.6088H61.7007V58.5781H64.3254V47.8359H56.5254V47.8395Z" fill="#414042"/>
<path d="M4.38909 54.7014L5.3804 51.9885L6.39993 54.7014H4.38909ZM7.84985 58.582H10.725L6.79152 47.8398H4.00103L0.078125 58.582H3.02736L3.53536 57.1955H7.34891L7.85338 58.582H7.84985Z" fill="#414042"/>
<path d="M17.8062 52.6776V50.6068H20.1981C20.7802 50.6138 21.641 50.5785 21.6868 51.6263V51.6581C21.641 52.7058 20.7837 52.6741 20.1981 52.6811H17.8062V52.6776ZM24.4032 51.6298C24.4032 50.1517 23.4331 47.8516 20.0429 47.8516H15.0898V58.5937H17.8062V55.4222H20.6673C23.6236 55.4222 24.4032 52.8258 24.4032 51.838V51.6298Z" fill="#414042"/>
<path d="M74.8622 53.7524C75.4442 53.7595 76.305 53.7277 76.3509 54.7755V54.8072C76.305 55.855 75.4478 55.8197 74.8622 55.8268H72.4703V53.7524H74.8622ZM79.0673 54.5956C79.0673 53.6078 78.2876 51.0149 75.3314 51.0149H72.4703V47.8398H69.7539V58.582H74.7069C78.0971 58.582 79.0673 56.2818 79.0673 54.8037V54.5956Z" fill="#414042"/>
<path d="M46.2632 56.1458C47.3604 56.1458 48.3199 55.5354 48.8173 54.6359H44.7181V52.0112H48.9126C48.4505 51.0093 47.438 50.3108 46.2668 50.3108C45.4377 50.3108 44.5628 50.7835 44.009 51.4009L42.0898 49.4959C43.1517 48.3141 44.6687 47.6367 46.2562 47.6367C49.3395 47.6367 51.8477 50.145 51.8477 53.2318C51.8477 56.3186 49.3395 58.8269 46.2562 58.8269C44.6369 58.8269 43.2293 58.1531 42.1675 56.9325L44.0372 55.0345C44.5911 55.673 45.4236 56.1528 46.2668 56.1528" fill="#414042"/>
<path d="M31.3517 47.8435V53.0964L37.7441 47.5859V58.5856H35.0841V53.3221L28.6953 58.8396V47.8435H31.3517Z" fill="#414042"/>
<path d="M56.5254 61.9918V68.0667C56.5254 68.0667 56.5466 69.0227 55.9751 69.6083L54.1406 71.5098L56.1197 73.4924L57.5344 71.8732C58.1341 71.224 59.196 70.3527 59.196 68.6205L59.2101 64.7611H61.7007V72.7304H64.3254V61.9883H56.5254V61.9918Z" fill="#414042"/>
<path d="M70.7129 61.9918V68.0667C70.7129 68.0667 70.7341 69.0227 70.1626 69.6083L68.3281 71.5098L70.3072 73.4924L71.7219 71.8732C72.3216 71.224 73.3834 70.3527 73.3834 68.6205L73.3976 64.7611H75.8882V72.7304H78.5129V61.9883H70.7129V61.9918Z" fill="#414042"/>
<path d="M45.1664 68.8498L46.1577 66.137L47.1773 68.8498H45.1664ZM48.6272 72.7304H51.5023L47.5689 61.9883H44.7784L40.8555 72.7304H43.8047L44.3127 71.344L48.1263 71.3616L48.6307 72.7304H48.6272Z" fill="#414042"/>
<path d="M5.43899 65.3203L0.136719 61.8242V72.7251H2.77551V67.0101L5.40019 68.5835L8.05661 66.8407V72.7251H10.6989V61.8242L5.43899 65.3203Z" fill="#414042"/>
<path d="M25.2842 64.765V61.9922H16.2812V72.7308H25.2842V70.0673H18.9412V68.8114H23.9542V66.035H18.9412V64.765H25.2842Z" fill="#414042"/>
<path d="M38.5206 61.9922H29.7188V64.7686H32.6997V72.7308H35.4832V64.7686H38.5206V61.9922Z" fill="#414042"/>
<path d="M33.0403 8.62128V16.4248L49.4516 32.8078L49.4269 32.8325C43.7331 36.7413 35.8661 36.1663 30.8108 31.111C28.0485 28.3487 26.5245 24.6763 26.5245 20.7675C26.5245 16.8587 28.045 13.1862 30.8108 10.424C33.6612 7.57352 37.4077 6.14477 41.1542 6.14477C44.1105 6.14477 47.0704 7.03377 49.5857 8.81178L49.6174 8.84L53.7626 4.64546L53.7696 4.63487C45.7404 -1.65518 34.0599 -1.10485 26.6691 6.28588C22.8027 10.1523 20.6719 15.2959 20.6719 20.7675C20.6719 26.2391 22.8027 31.3791 26.6691 35.2491C30.6626 39.2425 35.9049 41.2393 41.1507 41.2393C46.3965 41.2393 51.6388 39.2425 55.6323 35.2491C56.3096 34.5717 56.9305 33.8556 57.495 33.1112L33.0403 8.62128Z" fill="#414042"/>
<path d="M33.0469 32.9325L33.0504 25.4359L37.5448 20.9062L37.5413 28.3993L33.0469 32.9325Z" fill="#414042"/>
<path d="M45.1367 20.8313L45.1402 13.3383L49.6382 8.80859L49.6347 16.3016L45.1367 20.8313Z" fill="#414042"/>
</svg>
