<svg width="59" height="83" viewBox="0 0 59 83" fill="none" xmlns="http://www.w3.org/2000/svg">
<path d="M48.2973 49.9963C49.3248 49.987 50.3434 49.8067 51.3111 49.463C53.9198 48.5623 55.3711 47.1697 55.8059 45.5836C55.2441 46.1762 54.4539 46.4823 53.4592 46.4823C53.4269 46.4794 53.3943 46.4794 53.362 46.4823H53.3083C51.9722 46.4823 51.1979 47.4502 50.8684 47.865C50.7552 48.0072 50.7135 48.0625 50.6579 48.0744L50.4276 48.1297L50.5686 47.9322C50.9795 47.3831 50.9379 45.8858 50.8803 45.4809C50.7328 45.55 50.5705 45.5819 50.4078 45.5737C50.1393 45.5681 49.8726 45.5296 49.6136 45.4592C49.5007 45.4309 49.3847 45.4163 49.2682 45.4157C49.1111 45.4129 48.9555 45.4473 48.8144 45.516C48.6732 45.5846 48.5504 45.6857 48.4562 45.8108C48.6348 45.872 48.9783 46.0241 49.0716 46.3046C49.0968 46.4171 49.0917 46.5342 49.0568 46.6442C49.0219 46.7541 48.9586 46.8529 48.8731 46.9307C48.5118 47.3574 48.2616 47.5668 48.1068 47.5668C48.0848 47.5673 48.063 47.5625 48.0432 47.5529C46.9507 47.4848 45.8828 47.2001 44.9024 46.7154C43.7867 46.1742 43.2923 45.5797 42.3929 44.5012C42.1468 44.2069 41.8688 43.8731 41.5412 43.4958C39.1906 40.533 36.3793 32.2232 36.2483 30.4001L36.2265 30.0781L36.2066 30.3467C36.2821 30.4593 36.5719 30.5087 36.703 30.5087C36.834 30.5087 36.7466 30.4731 36.8816 30.4336C37.0722 30.3655 37.2758 30.3411 37.4772 30.3625C37.4774 30.2147 37.5113 30.0688 37.5765 29.9359C37.6817 29.6653 37.775 29.4105 37.4475 29.1201L37.1993 28.9068L37.5209 28.9739C38.1364 29.1043 38.7121 28.9068 38.9742 28.4841C39.0612 28.3404 39.1111 28.1776 39.1194 28.0101C39.1277 27.8426 39.0942 27.6756 39.0218 27.5241C38.8294 27.5865 38.6286 27.6198 38.4262 27.6229C37.914 27.6229 37.5884 27.3464 37.2172 26.9849C36.5838 26.3706 36.0656 24.8714 35.4899 22.9614C34.5543 23.9286 33.6916 24.9631 32.909 26.0565C33.8302 30.5047 35.4899 37.1889 38.2475 43.8494C39.7624 47.5213 38.5652 48.8368 38.049 49.3978C37.9934 49.4549 37.9417 49.5156 37.8942 49.5795L37.7909 49.7237C37.5566 50.0417 37.1675 50.573 37.3462 50.9641C37.4852 51.2644 37.9418 51.4481 38.7121 51.5113C39.5698 51.5804 40.1793 51.4342 40.5108 51.0767C40.8424 50.7192 40.8186 50.1899 40.8007 49.9726C40.8007 49.9449 40.8007 49.9232 40.8007 49.9074V49.8047L40.9039 49.8185C41.0129 49.8368 41.123 49.8467 41.2335 49.8481C41.3927 49.8477 41.5501 49.8147 41.6961 49.7514C41.9196 49.6636 42.1553 49.6103 42.3949 49.5933C42.1972 49.2727 42.1265 48.8904 42.1964 48.5208C42.2361 48.1119 42.2778 47.6912 41.7576 46.99L41.8907 46.8833L41.9363 46.9347C44.1917 49.459 46.6396 49.9963 48.2973 49.9963Z" fill="#333333"/>
<path d="M28.3804 13.502C28.3804 13.3756 28.3705 13.2472 28.3645 13.1069C27.2532 13.3079 26.1836 13.6925 25.1999 14.2447C25.7955 18.8114 23.8399 25.537 22.3052 27.0303C21.934 27.3918 21.6084 27.6683 21.0962 27.6683C20.8939 27.6639 20.6933 27.6307 20.5006 27.5696C20.4292 27.721 20.3963 27.8874 20.4046 28.0544C20.4129 28.2215 20.4622 28.3839 20.5482 28.5275C20.8103 28.9502 21.386 29.1478 22.0035 29.0174L22.3231 28.9502L22.0769 29.1655C21.7434 29.4559 21.8427 29.7107 21.9479 29.9813C22.0114 30.1148 22.0453 30.2603 22.0472 30.408C22.2485 30.3857 22.4524 30.41 22.6428 30.4791C22.7638 30.5209 22.8901 30.5462 23.018 30.5541C23.0779 30.5563 23.1373 30.5422 23.1898 30.5134C23.2423 30.4845 23.2858 30.4419 23.3158 30.3902L23.4965 30.1235L23.4706 30.4415C23.3853 31.6267 22.3271 34.9846 21.1061 37.9632C21.4611 39.0225 21.9766 40.0216 22.6348 40.926C26.6333 30.0465 28.5333 18.0213 28.3804 13.502Z" fill="#333333"/>
<path d="M18.8428 49.9271C18.8249 50.1444 18.7833 50.654 19.1307 51.0313C19.4106 51.3315 19.8811 51.4836 20.5323 51.4836C20.6574 51.4836 20.7924 51.4836 20.9294 51.4659C21.6977 51.4026 22.1564 51.219 22.2953 50.9187C22.474 50.5237 22.0829 49.9963 21.8506 49.6783L21.7454 49.5341C21.6986 49.4701 21.6475 49.4094 21.5925 49.3524C21.0803 48.7914 19.8831 47.4759 21.394 43.8039L21.4635 43.6301C20.6134 43.1577 19.8062 42.6124 19.0513 42.0006C18.7663 42.5051 18.4459 42.9889 18.0923 43.4484C17.7608 43.8276 17.4828 44.1615 17.2387 44.4558C16.3393 45.5342 15.8489 46.1288 14.7292 46.67C13.7417 47.1601 12.6643 47.4451 11.5626 47.5075C11.4676 47.5178 11.3722 47.5224 11.2767 47.5213C10.828 47.5213 10.008 47.4384 9.54148 46.8853C9.45742 46.8067 9.3957 46.7074 9.36259 46.5974C9.32947 46.4875 9.32612 46.3708 9.35288 46.2592C9.44619 45.9787 9.78965 45.8266 9.96833 45.7653C9.87498 45.6393 9.7524 45.5375 9.61102 45.4688C9.46964 45.4 9.31365 45.3662 9.15633 45.3703C9.03975 45.3714 8.92375 45.3867 8.81088 45.4157C8.55169 45.4852 8.28509 45.5237 8.01674 45.5303C7.8538 45.5378 7.69151 45.5052 7.54423 45.4355C7.48665 45.8424 7.44496 47.3376 7.85593 47.8867L7.99689 48.0843L7.76659 48.029C7.711 48.0151 7.6693 47.9618 7.55614 47.8196C7.22657 47.4068 6.45229 46.4369 5.11615 46.4369H5.06255C5.02949 46.4349 4.99634 46.4349 4.96328 46.4369C3.97061 46.4369 3.17648 46.1347 2.6186 45.5382C3.53781 49.6407 9.19206 49.9509 10.2503 49.9509C14.1574 49.9509 17.1553 47.5055 17.7449 46.8497L17.8779 46.9564C17.3558 47.6596 17.3995 48.0803 17.4392 48.4872C17.5083 48.8568 17.4376 49.2389 17.2406 49.5598C17.4797 49.5764 17.7148 49.6297 17.9375 49.7178C18.0841 49.7811 18.2422 49.8141 18.4021 49.8146C18.5124 49.8128 18.6225 49.8036 18.7316 49.7869L18.8329 49.7711V49.8738C18.8468 49.8778 18.8448 49.9015 18.8428 49.9271Z" fill="#333333"/>
<path d="M11.1278 12.7494C10.687 12.8857 9.65465 13.2077 9.36082 13.8931C9.29829 14.0591 9.27231 14.2365 9.28464 14.4134C9.29697 14.5902 9.34733 14.7624 9.43229 14.9182C9.98898 14.7454 10.5685 14.6562 11.1516 14.6535C12.7022 14.6535 14.4234 15.2975 17.2784 16.9468C17.8688 16.3167 18.5023 15.728 19.1744 15.1849L19.1307 15.1493C16.919 13.4091 16.5497 13.1188 17.2446 11.7342C17.0212 11.5475 16.7419 11.4398 16.4505 11.428C16.1626 11.4465 15.8884 11.5566 15.6683 11.7421L15.4935 11.8626L15.4796 11.7184C15.3645 10.4937 14.6498 10.2132 13.8199 9.88732C13.2481 9.66215 12.6585 9.43105 12.1919 8.87601C11.3084 9.72141 10.8419 10.5629 10.8399 11.3154C10.8385 11.5435 10.8854 11.7693 10.9774 11.9783C11.0694 12.1872 11.2045 12.3746 11.374 12.5282L11.4573 12.6052L11.3601 12.6625C11.2852 12.6979 11.2075 12.7269 11.1278 12.7494Z" fill="#333333"/>
<path d="M47.5727 30.7655C47.5429 30.5067 46.314 29.604 45.1129 29.604C45.0639 29.604 45.0142 29.604 44.964 29.604C43.6695 29.6949 42.8555 30.6608 42.5438 32.474L42.514 32.6459L42.3949 32.5155C42.1745 32.2745 41.3486 31.8222 40.5565 31.8222C40.2562 31.8082 39.9593 31.8901 39.7092 32.0561C39.4591 32.2221 39.269 32.4634 39.1668 32.7447C39.0628 33.0854 39.0883 33.4523 39.2382 33.7757C39.2738 33.8587 39.329 33.9318 39.399 33.989C39.4615 33.8472 39.57 33.7302 39.7071 33.6568C39.8442 33.5835 40.002 33.5579 40.1555 33.5841C40.2667 33.6 40.3735 33.6386 40.4692 33.6974C40.5648 33.7561 40.6473 33.8339 40.7114 33.9258C41.0747 34.4256 41.1183 35.4408 40.8464 37.0269C40.6653 38.0505 40.2718 39.0253 39.6909 39.889C39.9391 40.4224 40.1832 40.9162 40.4175 41.3586C41.4583 40.4907 42.3689 39.479 43.1216 38.3543L43.1851 38.2516C43.4491 37.817 44.2552 36.4936 45.0275 36.4936C45.0949 36.4938 45.1619 36.5045 45.226 36.5252C45.5993 36.6477 45.6906 36.7642 45.7521 36.8492C45.8872 36.5189 45.943 36.1618 45.9149 35.8063C45.8951 35.5021 45.7978 35.0952 45.4583 34.8878L45.3154 34.7989L45.4722 34.7357C45.6639 34.6711 45.8386 34.5647 45.9836 34.4243C46.1286 34.2838 46.2401 34.1128 46.31 33.9239C46.4091 33.6448 46.4028 33.3394 46.2922 33.0646C45.9705 32.5234 45.8951 32.1067 46.0321 31.7531C46.2008 31.3383 46.6892 31.0242 47.525 30.7931C47.5747 30.7872 47.5727 30.7754 47.5727 30.7655Z" fill="#333333"/>
<path d="M35.1028 12.7593C35.0018 13.0794 34.9203 13.4052 34.8586 13.7351C35.6568 14.0808 36.4285 14.4842 37.1675 14.9419C37.9269 15.4235 38.6034 16.0238 39.1707 16.7196C39.4765 16.4609 39.7902 16.2001 40.1078 15.9394L40.2567 15.8189C39.0224 14.8511 37.7035 13.995 36.3158 13.261C35.9208 13.0724 35.5158 12.9049 35.1028 12.7593Z" fill="#333333"/>
<path d="M40.5565 25.4422C41.3506 25.4422 42.1745 24.9919 42.3949 24.7489L42.514 24.6205L42.5438 24.7924C42.8555 26.6037 43.6695 27.5696 44.964 27.6604H45.1129C46.316 27.6604 47.5429 26.7597 47.5727 26.499C47.5727 26.4891 47.5727 26.4773 47.529 26.4674C46.6892 26.2343 46.2008 25.9202 46.0321 25.5054C45.8891 25.1519 45.9725 24.7351 46.2921 24.1939C46.4028 23.9191 46.4091 23.6137 46.31 23.3347C46.2398 23.1459 46.1282 22.975 45.9833 22.8346C45.8384 22.6941 45.6638 22.5876 45.4722 22.5228L45.3154 22.4596L45.4583 22.3708C45.7978 22.1732 45.8931 21.7584 45.9149 21.4543C45.9427 21.0981 45.887 20.7404 45.7521 20.4094C45.6906 20.4963 45.5993 20.6069 45.226 20.7333C45.162 20.7549 45.095 20.7662 45.0275 20.7669C44.2552 20.7669 43.4491 19.4415 43.1851 19.0069L43.1216 18.9042C42.8257 18.4736 42.5259 18.0825 42.2262 17.7191C41.6147 18.0885 41.035 18.4618 40.4632 18.8588C40.6369 19.3058 40.7653 19.769 40.8464 20.2415C41.1183 21.8216 41.0747 22.8428 40.7114 23.3445C40.6468 23.4358 40.5642 23.5131 40.4686 23.5715C40.3731 23.6299 40.2665 23.6683 40.1555 23.6843C40.0032 23.7113 39.8462 23.6871 39.7093 23.6156C39.5723 23.5441 39.4632 23.4293 39.399 23.2892C39.3281 23.3456 39.2727 23.419 39.2382 23.5026C39.0883 23.8259 39.0628 24.1928 39.1668 24.5336C39.2714 24.8123 39.4625 25.0506 39.7123 25.2139C39.9622 25.3773 40.2579 25.4573 40.5565 25.4422Z" fill="#333333"/>
<path d="M29.3989 44.4973C29.4981 44.837 29.5974 45.1649 29.7225 45.473C30.0302 45.473 33.1432 45.8918 36.3158 44.0508C36.8578 43.7368 37.3541 43.4583 37.8147 43.1857C37.6824 42.8604 37.5547 42.5312 37.4316 42.1981C37.3343 42.2652 37.2469 42.3225 37.1675 42.3719C36.4329 42.8282 33.848 44.3353 31.4914 44.5012C31.3584 44.517 29.8813 44.5289 29.3989 44.4973Z" fill="#333333"/>
<path d="M31.007 12.7652V12.7554L31.1063 12.7652C31.1599 12.7751 31.2155 12.783 31.277 12.7889C31.2909 12.4946 31.3028 12.1648 31.3068 11.8428H30.876C30.3896 11.8053 29.9051 11.7875 29.4326 11.7875C18.4835 11.7875 13.5995 21.4227 11.6638 27.1666C11.362 28.0594 11.1873 28.3794 10.8101 28.3932C10.685 28.3932 10.4269 28.5038 10.4131 28.6342C10.4389 28.7665 10.7069 28.8712 10.8101 28.8752C11.1893 28.889 11.364 29.209 11.6658 30.0998C13.4526 35.3796 17.7965 44.3531 27.5207 45.3762C27.3877 44.9654 27.2706 44.5308 27.1693 44.0805C25.8868 43.7032 24.8564 43.0316 23.7744 42.285C18.0864 38.3661 17.8184 19.0247 23.7744 14.9814C25.6883 13.6837 27.898 12.7435 30.2963 12.7435C30.5285 12.7415 30.7688 12.7494 31.007 12.7652ZM17.3081 28.6421C17.3151 28.6905 17.3191 28.7394 17.3201 28.7883C17.3184 29.074 17.2277 29.3522 17.0606 29.5846C16.8935 29.8169 16.6582 29.9921 16.3869 30.086C16.5536 30.776 16.5185 31.4991 16.2857 32.1699L16.242 32.2903L16.1467 32.2015C15.8479 31.9415 15.6254 31.606 15.5027 31.2304C15.38 30.8549 15.3618 30.4533 15.4499 30.0682C15.1891 29.9695 14.9647 29.7942 14.8065 29.5656C14.6484 29.337 14.5639 29.0658 14.5644 28.7883C14.566 28.7485 14.5706 28.7088 14.5783 28.6698C14.5836 28.6579 14.5863 28.6452 14.5863 28.6322C14.5863 28.6193 14.5836 28.6065 14.5783 28.5947C14.5707 28.5556 14.5661 28.516 14.5644 28.4762C14.5641 28.1984 14.6486 27.9271 14.8067 27.6982C14.9648 27.4693 15.1891 27.2935 15.4499 27.1943C15.3619 26.8095 15.3803 26.4083 15.503 26.033C15.6256 25.6578 15.8481 25.3226 16.1467 25.063L16.242 24.9741L16.2857 25.0946C16.5185 25.7654 16.5536 26.4884 16.3869 27.1785C16.6582 27.2723 16.8935 27.4475 17.0606 27.6799C17.2277 27.9123 17.3184 28.1905 17.3201 28.4762C17.3191 28.5251 17.3151 28.5739 17.3081 28.6224V28.6421Z" fill="#333333"/>
<path d="M32.9943 44.1022C33.1505 43.3853 33.2632 42.6598 33.3318 41.9295C33.8798 36.8097 33.2326 32.5886 31.2969 28.6619C30.9176 29.3673 30.5769 30.0926 30.2764 30.8346C31.6402 34.2654 32.0895 37.9886 31.5808 41.643C31.4662 42.5519 31.2844 43.4511 31.0368 44.3333C31.0368 44.3333 31.0666 44.3708 31.0725 44.3708C31.0785 44.3708 32.2677 44.3511 32.9943 44.1022Z" fill="#333333"/>
<path d="M49.1491 14.7859C49.7329 14.7887 50.313 14.8779 50.8704 15.0506C50.9548 14.8946 51.0049 14.7224 51.0172 14.5457C51.0296 14.3689 51.0038 14.1915 50.9418 14.0254C50.648 13.34 49.6136 13.0181 49.1729 12.8818C49.0909 12.8611 49.0111 12.8327 48.9347 12.7968L48.8374 12.7376L48.9188 12.6605C49.0881 12.5072 49.2231 12.3202 49.3151 12.1116C49.4071 11.903 49.454 11.6775 49.4528 11.4497C49.4528 10.6972 48.9863 9.85374 48.1008 9.01032C47.6362 9.56339 47.0446 9.80041 46.4748 10.0197C45.6449 10.3456 44.9282 10.628 44.8131 11.8507L44.8012 11.9949L44.6265 11.8744C44.4059 11.69 44.1318 11.5806 43.8442 11.5623C43.5531 11.5743 43.2741 11.6812 43.0501 11.8665C43.743 13.2492 43.3757 13.5415 41.164 15.2817C40.8483 15.5305 40.495 15.8091 40.0999 16.1271C29.4386 24.8674 25.8769 31.8953 26.9609 42.0578C27.3996 46.1841 28.8966 48.3272 30.0997 49.4057L30.1573 49.3445L30.199 49.3958C30.5591 49.0599 30.885 48.6894 31.1718 48.2897L31.2016 48.2502C31.7598 47.4233 32.2057 46.5267 32.5278 45.5836L32.4642 45.5975C31.8414 45.6698 31.2151 45.708 30.5881 45.712H30.5603C30.4432 46.0182 30.3101 46.3737 30.2168 46.6009L30.1434 46.7767L30.062 46.6048C29.3583 45.0726 28.9026 43.4394 28.712 41.7655C27.89 35.4784 29.6212 29.7008 33.854 24.5949C36.1133 21.873 38.9821 19.4691 42.379 17.4524C45.6628 15.5088 47.4953 14.7859 49.1491 14.7859Z" fill="#333333"/>
<path d="M31.4398 13.4546C31.3624 15.6273 31.7376 19.1985 32.4702 23.2932C33.2147 22.3846 34.0585 21.4523 34.9836 20.516C34.5866 18.5112 33.8758 13.6916 35.6646 11.1258C35.9235 10.7363 36.2614 10.4051 36.6567 10.1533C37.0519 9.9016 37.4958 9.73496 37.9597 9.66412C38.5295 9.43895 42.3969 9.29475 42.9806 9.26908C43.0109 8.88799 42.931 8.50623 42.7503 8.16887C41.625 7.79414 40.4241 7.70119 39.2541 7.89827L39.1985 7.91012L39.1668 7.86469C39.1668 7.85284 38.317 6.67955 36.3496 5.95069C35.9699 5.79956 35.567 5.7147 35.1583 5.69984C34.0049 5.69984 33.8897 6.64005 33.8857 6.68746L33.8719 6.82374L32.4384 5.90922L32.498 5.83613C32.498 5.83613 33.1254 5.04604 33.0241 4.13349C32.9807 3.83787 32.8774 3.55412 32.7204 3.29946C32.5634 3.0448 32.356 2.82454 32.1109 2.65207C31.8042 2.41685 31.4711 2.21798 31.1182 2.0595C30.5762 1.79877 30.1831 1.60915 30.0957 0.81313C30.1021 0.786992 30.1023 0.759767 30.0966 0.733504C30.0908 0.707242 30.0791 0.682628 30.0624 0.66151C30.0456 0.640392 30.0243 0.62332 30 0.611584C29.9757 0.599847 29.949 0.59375 29.922 0.59375C29.895 0.59375 29.8683 0.599847 29.844 0.611584C29.8197 0.62332 29.7984 0.640392 29.7817 0.66151C29.7649 0.682628 29.7532 0.707242 29.7475 0.733504C29.7417 0.759767 29.742 0.786992 29.7483 0.81313C29.6609 1.60322 29.2698 1.80074 28.7278 2.0595C28.3747 2.21753 28.0415 2.41643 27.7352 2.65207C27.1892 3.08267 26.8815 3.58042 26.8199 4.13546C26.7187 5.05789 27.3401 5.82626 27.346 5.83416L27.4056 5.90922L25.9742 6.82374L25.9583 6.68746C25.9583 6.64795 25.8352 5.69984 24.6857 5.69984C24.2773 5.71488 23.8744 5.79905 23.4945 5.94872C21.527 6.66968 20.6872 7.85284 20.6773 7.86469L20.6455 7.91012L20.5919 7.89827C20.19 7.82874 19.7828 7.79502 19.3749 7.79753C18.5966 7.79033 17.8229 7.91662 17.0878 8.17085C16.907 8.5082 16.8271 8.88997 16.8575 9.27105C17.4431 9.29278 21.3086 9.43697 21.8784 9.6661C23.2165 9.88337 24.1834 10.7525 24.7512 12.2477C25.9159 11.9127 27.1145 11.7073 28.3248 11.6354C28.3248 10.7584 28.3963 9.71351 28.9204 9.18612C29.0405 9.06866 29.1835 8.97687 29.3405 8.91641C29.4976 8.85594 29.6654 8.82808 29.8337 8.83452H29.9965C30.1693 8.82787 30.3416 8.85731 30.5023 8.92092C30.663 8.98454 30.8086 9.08093 30.9296 9.2039C31.6066 9.90708 31.5252 11.4991 31.4696 12.9015C31.4537 13.0872 31.4458 13.2729 31.4398 13.4546ZM29.923 6.29241C29.7148 6.2928 29.5112 6.23174 29.3379 6.11694C29.1646 6.00215 29.0294 5.83879 28.9495 5.64753C28.8695 5.45627 28.8484 5.24572 28.8888 5.04252C28.9291 4.83932 29.0292 4.6526 29.1763 4.50599C29.3233 4.35939 29.5108 4.25949 29.715 4.21893C29.9192 4.17838 30.1308 4.19899 30.3232 4.27817C30.5156 4.35735 30.6801 4.49153 30.7958 4.66373C30.9115 4.83593 30.9732 5.0384 30.9732 5.24554C30.9727 5.52269 30.862 5.78836 30.6652 5.98452C30.4684 6.18067 30.2016 6.29137 29.923 6.29241Z" fill="#333333"/>
<path d="M24.7135 20.0993C23.7843 19.1748 23.0438 18.4223 21.934 17.4623C21.594 18.0904 21.3078 18.7459 21.0783 19.4217C22.1949 20.2616 23.248 21.1819 24.229 22.1752C24.4117 21.5135 24.5765 20.8143 24.7135 20.0993Z" fill="#333333"/>
<path d="M27.5982 23.0917C27.4691 23.8265 27.3262 24.585 27.1713 25.3613C27.8758 26.2868 28.509 27.264 29.0653 28.2846C29.3731 27.692 29.7145 27.0817 30.0818 26.4911C29.338 25.2995 28.5079 24.1634 27.5982 23.0917Z" fill="#333333"/>
<path d="M14.2099 55.8501H14.4958L17.1839 64.304H16.9477L16.0781 61.5585H12.6137L11.7461 64.304H11.5078L14.2099 55.8501ZM14.3647 56.0634H14.3409L12.6851 61.3451H16.0245L14.3647 56.0634Z" fill="#333333"/>
<path fill-rule="evenodd" clip-rule="evenodd" d="M14.101 55.7008H14.607L17.3901 64.4533H16.8385L15.969 61.7078H12.7251L11.8575 64.4533H11.3036L14.101 55.7008ZM14.3541 56.5269L12.8904 61.1958H15.8212L14.3541 56.5269Z" fill="#333333"/>
<path d="M18.4952 55.8501H18.8923L22.9265 63.9268H22.9503V55.8501H23.1886V64.304H22.8431L18.7613 56.0634H18.7374V64.304H18.4992L18.4952 55.8501Z" fill="#333333"/>
<path fill-rule="evenodd" clip-rule="evenodd" d="M18.345 55.7008H18.9855L22.8001 63.3378V55.7008H23.3389V64.4533H22.7497L18.8878 56.6567V64.4533H18.3491L18.345 55.7008ZM22.8978 64.0761L22.9367 64.1547H23.0384V64.0761H22.8978Z" fill="#333333"/>
<path d="M25.0037 55.8501H27.0505C29.288 55.8501 29.8122 57.685 29.8122 59.9348C29.8122 63.4053 28.4681 64.304 26.6932 64.304H25.0037V55.8501ZM25.2419 64.0927H26.8302C28.7361 64.0927 29.5799 62.6113 29.5799 59.9447C29.5799 57.3986 28.9366 56.0733 26.9612 56.0733H25.2479L25.2419 64.0927Z" fill="#333333"/>
<path fill-rule="evenodd" clip-rule="evenodd" d="M24.8534 55.7008H27.0505C27.6309 55.7008 28.11 55.8199 28.5007 56.0424C28.8918 56.2651 29.1854 56.5864 29.402 56.9767C29.8319 57.7512 29.9624 58.8044 29.9624 59.9348C29.9624 61.6841 29.6246 62.819 29.0332 63.517C28.4364 64.2215 27.6057 64.4533 26.6932 64.4533H24.8534V55.7008ZM25.398 56.2226L25.3923 63.9434H26.8302C27.7365 63.9434 28.3737 63.5953 28.7929 62.9387C29.2195 62.2704 29.4296 61.2672 29.4296 59.9447C29.4296 58.6772 29.2681 57.7454 28.8838 57.1332C28.5096 56.537 27.9096 56.2226 26.9612 56.2226H25.398Z" fill="#333333"/>
<path d="M31.6107 55.8501H33.9078C35.0037 55.8501 36.0499 56.336 36.0499 58.0643C36.0499 59.3205 35.3848 60.0533 34.3485 60.1719V60.1956C35.6946 60.3378 35.9665 61.1081 35.9904 62.5402C36.0142 63.7964 36.0261 63.9228 36.1889 64.304H35.9507C35.8196 64.0334 35.7958 63.9268 35.7521 62.5165C35.6926 60.6933 35.2399 60.3141 33.5683 60.3141H31.849V64.304H31.6107V55.8501ZM31.849 60.1007H33.4789C35.1228 60.1007 35.8137 59.3205 35.8137 58.0643C35.8137 56.7508 35.1823 56.0634 33.8839 56.0634H31.849V60.1007Z" fill="#333333"/>
<path fill-rule="evenodd" clip-rule="evenodd" d="M31.4604 55.7008H33.9078C34.4748 55.7008 35.0511 55.826 35.4873 56.1954C35.928 56.5686 36.2002 57.1691 36.2002 58.0643C36.2002 58.7182 36.0268 59.252 35.7036 59.6399C35.5057 59.8775 35.256 60.0551 34.9661 60.1717C35.34 60.2979 35.6092 60.5064 35.7935 60.8064C36.0558 61.2333 36.1287 61.8206 36.1406 62.5375C36.1526 63.1685 36.1615 63.506 36.1869 63.7338C36.2111 63.9517 36.2497 64.0642 36.3272 64.2457L36.4159 64.4533H35.8562L35.8153 64.3688C35.7436 64.2207 35.6994 64.1104 35.6694 63.8549C35.6407 63.6105 35.6237 63.2241 35.6019 62.5212C35.5721 61.608 35.4421 61.1149 35.1593 60.8379C34.8777 60.5623 34.4063 60.4634 33.5683 60.4634H31.9992V64.4533H31.4604V55.7008ZM31.9992 56.2127V59.9514H33.4789C34.2793 59.9514 34.8198 59.7614 35.16 59.4446C35.4985 59.1295 35.6634 58.6659 35.6634 58.0643C35.6634 57.4289 35.5106 56.972 35.2266 56.6739C34.944 56.3773 34.5075 56.2127 33.8839 56.2127H31.9992Z" fill="#333333"/>
<path d="M37.9889 55.8501H41.8584V56.0634H38.2272V59.7808H41.6023V59.9941H38.2272V64.0927H41.9536V64.304H37.983L37.9889 55.8501Z" fill="#333333"/>
<path fill-rule="evenodd" clip-rule="evenodd" d="M37.8389 55.7008H42.0087V56.2127H38.3775V59.6314H41.7526V60.1434H38.3775V63.9434H42.104V64.4533H37.8327L37.8389 55.7008Z" fill="#333333"/>
<path d="M44.2981 60.7407L41.9157 55.8501H42.1659L44.4153 60.4918L46.6766 55.8501H46.9148L44.5324 60.7407V64.2961H44.2942L44.2981 60.7407Z" fill="#333333"/>
<path fill-rule="evenodd" clip-rule="evenodd" d="M41.6762 55.7008H42.2605L44.4158 60.1484L46.5826 55.7008H47.1547L44.6829 60.775V64.4454H44.1439L44.148 60.7749L41.6762 55.7008Z" fill="#333333"/>
<path d="M8.41909 71.5639C8.25232 72.9861 7.6587 74.5129 5.91954 74.5129C3.70588 74.5129 3.20558 72.2394 3.20558 70.1437C3.20558 68.048 3.70588 65.7745 5.91954 65.7745C7.71826 65.7745 8.22849 67.3014 8.28805 68.3423H8.04981C7.97834 67.0386 7.33707 65.9977 5.93145 65.9977C3.94611 65.9977 3.44382 68.0105 3.44382 70.1457C3.44382 72.2809 3.95604 74.2937 5.93145 74.2937C7.71826 74.2937 8.08555 72.435 8.18084 71.558L8.41909 71.5639Z" fill="#333333"/>
<path fill-rule="evenodd" clip-rule="evenodd" d="M4.47619 66.0396C4.86199 65.7748 5.33879 65.6252 5.91954 65.6252C6.86982 65.6252 7.49228 66.0322 7.87917 66.5825C8.26057 67.125 8.40738 67.7973 8.43808 68.3338L8.4471 68.4916H7.9075L7.89976 68.3504C7.8651 67.7181 7.69281 67.166 7.37417 66.7751C7.05982 66.3895 6.59233 66.147 5.93145 66.147C5.46204 66.147 5.08873 66.2655 4.79011 66.4687C4.49038 66.6727 4.25685 66.9683 4.07848 67.3358C3.71968 68.0752 3.59409 69.0848 3.59409 70.1457C3.59409 71.2063 3.72209 72.216 4.08212 72.9553C4.26112 73.323 4.49501 73.6186 4.79438 73.8227C5.09261 74.0259 5.46468 74.1443 5.93145 74.1443C6.75866 74.1443 7.25275 73.7201 7.55969 73.1811C7.87127 72.6341 7.98438 71.975 8.03144 71.5419L8.0463 71.4053L8.58739 71.4187L8.56834 71.5812C8.48374 72.3026 8.2895 73.0678 7.88283 73.6562C7.4705 74.2529 6.84263 74.6622 5.91954 74.6622C5.33879 74.6622 4.86199 74.5126 4.47619 74.2478C4.09158 73.9838 3.80629 73.6114 3.59701 73.1789C3.18044 72.318 3.05531 71.1985 3.05531 70.1437C3.05531 69.0889 3.18044 67.9694 3.59701 67.1085C3.80629 66.676 4.09158 66.3036 4.47619 66.0396Z" fill="#333333"/>
<path d="M9.89715 65.9168H10.1334V69.7488H14.2391V65.9168H14.4773V74.3708H14.2391V69.966H10.1334V74.3708H9.89715V65.9168Z" fill="#333333"/>
<path fill-rule="evenodd" clip-rule="evenodd" d="M9.74688 65.7675H10.2837V69.5995H14.0888V65.7675H14.6276V74.5201H14.0888V70.1153H10.2837V74.5201H9.74688V65.7675Z" fill="#333333"/>
<path d="M16.3454 65.9168H20.2129V66.1282H16.5837V69.8475H19.9588V70.0608H16.5837V74.1575H20.3082V74.3708H16.3375L16.3454 65.9168Z" fill="#333333"/>
<path fill-rule="evenodd" clip-rule="evenodd" d="M16.1954 65.7675H20.3633V66.2775H16.7341V69.6982H20.1092V70.2102H16.7341V74.0082H20.4586V74.5201H16.1872L16.1954 65.7675Z" fill="#333333"/>
<path d="M26.0955 72.5353H26.0716C25.8096 73.5644 25.1068 74.5106 23.8342 74.5106C21.6205 74.5106 21.1202 72.2371 21.1202 70.1414C21.1202 68.0457 21.6205 65.7722 23.8342 65.7722C25.621 65.7722 26.1431 67.299 26.2027 68.34H25.9644C25.893 67.0126 25.2497 65.9954 23.8461 65.9954C21.8607 65.9954 21.3584 68.0081 21.3584 70.1433C21.3584 72.2786 21.8687 74.2913 23.8461 74.2913C24.7494 74.2913 26.03 73.6514 26.0955 70.9749V70.4791H23.453V70.2658H26.3337V74.3703H26.0955V72.5353Z" fill="#333333"/>
<path fill-rule="evenodd" clip-rule="evenodd" d="M25.9452 73.3044C25.5618 74.0611 24.8814 74.6599 23.8342 74.6599C23.2534 74.6599 22.7766 74.5103 22.3908 74.2454C22.0062 73.9814 21.7209 73.6091 21.5116 73.1766C21.0951 72.3157 20.9699 71.1962 20.9699 70.1414C20.9699 69.0865 21.0951 67.9671 21.5116 67.1062C21.7209 66.6737 22.0062 66.3013 22.3908 66.0373C22.7766 65.7725 23.2534 65.6229 23.8342 65.6229C24.7788 65.6229 25.401 66.0301 25.7892 66.58C26.172 67.1222 26.322 67.7944 26.3527 68.3315L26.3617 68.4893H25.822L25.8144 68.3479C25.7797 67.7035 25.6068 67.1519 25.2884 66.7643C24.9744 66.382 24.5071 66.1447 23.8461 66.1447C23.3767 66.1447 23.0034 66.2632 22.7047 66.4664C22.405 66.6704 22.1715 66.966 21.9931 67.3335C21.6343 68.0728 21.5087 69.0825 21.5087 70.1433C21.5087 71.204 21.6362 72.2137 21.996 72.953C22.1749 73.3206 22.4087 73.6163 22.7082 73.8203C23.0065 74.0236 23.3788 74.142 23.8461 74.142C24.2618 74.142 24.7642 73.9954 25.1725 73.5377C25.5823 73.0784 25.9127 72.2886 25.9452 70.9731V70.6284H23.3027V70.1165H26.484V74.5197H25.9452V73.3044ZM26.1834 72.386H26.0683C26.1153 72.2015 26.1541 72.002 26.1834 71.7866V72.386Z" fill="#333333"/>
<path d="M28.2602 65.9168H28.4985V74.1575H32.1277V74.3708H28.2602V65.9168Z" fill="#333333"/>
<path fill-rule="evenodd" clip-rule="evenodd" d="M28.11 65.7675H28.6487V74.0082H32.2779V74.5201H28.11V65.7675Z" fill="#333333"/>
<path d="M34.5194 65.9168H34.8053L37.4954 74.3708H37.2671L36.3975 71.6232H32.9252L32.0556 74.3708H31.8173L34.5194 65.9168ZM34.6742 66.1282H34.6504L32.9966 71.4099H36.328L34.6742 66.1282Z" fill="#333333"/>
<path fill-rule="evenodd" clip-rule="evenodd" d="M34.4105 65.7675H34.9165L37.7016 74.5201H37.1579L36.2884 71.7726H33.0365L32.167 74.5201H31.6131L34.4105 65.7675ZM34.6634 66.5927L33.2019 71.2606H36.125L34.6634 66.5927Z" fill="#333333"/>
<path d="M38.8165 65.9168H39.0547V70.9023H39.0785L42.8626 65.9168H43.1366L40.4107 69.4722L43.3748 74.3629H43.1247L40.2697 69.65L39.0547 71.2559V74.3708H38.8165V65.9168Z" fill="#333333"/>
<path fill-rule="evenodd" clip-rule="evenodd" d="M38.6662 65.7675H39.205V70.4877L42.7877 65.7675H43.44L40.5921 69.4821L43.6407 74.5122H43.0397L40.2559 69.9167L39.205 71.3057V74.5201H38.6662V65.7675ZM38.9667 71.0516V71.1237L39.0213 71.0516H38.9667Z" fill="#333333"/>
<path d="M46.5644 74.5129C44.3507 74.5129 43.8504 72.2394 43.8504 70.1437C43.8504 68.048 44.3984 65.7745 46.5644 65.7745C49.2545 65.7745 49.3439 69.0297 49.3439 70.1437C49.3439 71.2577 49.2545 74.5129 46.5644 74.5129ZM46.5763 74.2996C48.5279 74.2996 49.0997 72.4172 49.0997 70.1516C49.0997 67.886 48.5279 66.0036 46.5763 66.0036C44.6247 66.0036 44.0887 68.0164 44.0887 70.1516C44.0887 72.2868 44.6009 74.2917 46.5763 74.2917V74.2996Z" fill="#333333"/>
<path fill-rule="evenodd" clip-rule="evenodd" d="M46.7266 74.1462V74.1424H46.5763C46.1094 74.1424 45.7373 74.0244 45.439 73.8218C45.1397 73.6185 44.9058 73.3238 44.7269 72.9572C44.3669 72.2198 44.2389 71.2122 44.2389 70.1516C44.2389 69.0917 44.3727 68.0819 44.7357 67.3424C44.9162 66.9745 45.151 66.6786 45.4495 66.4745C45.7468 66.2711 46.1159 66.1529 46.5763 66.1529C47.0388 66.1529 47.4112 66.2641 47.712 66.4583C48.0135 66.6531 48.2518 66.937 48.436 67.2959C48.8066 68.0179 48.9494 69.0264 48.9494 70.1516C48.9494 71.2768 48.8066 72.2853 48.436 73.0074C48.2518 73.3662 48.0135 73.6501 47.712 73.8449C47.4445 74.0176 47.1204 74.1246 46.7266 74.1462ZM45.1408 66.0399C45.524 65.7752 45.9948 65.6252 46.5644 65.6252C47.2702 65.6252 47.8149 65.8397 48.2302 66.1862C48.6429 66.5304 48.9186 66.9972 49.1037 67.4891C49.4726 68.4696 49.4941 69.586 49.4941 70.1437C49.4941 70.7014 49.4726 71.8178 49.1037 72.7984C48.9186 73.2903 48.6429 73.757 48.2302 74.1012C47.8149 74.4477 47.2702 74.6622 46.5644 74.6622C45.9836 74.6622 45.5068 74.5126 45.121 74.2478C44.7364 73.9838 44.4511 73.6114 44.2419 73.1789C43.8253 72.318 43.7001 71.1985 43.7001 70.1437C43.7001 69.0875 43.8375 67.9683 44.2601 67.1077C44.4723 66.6756 44.7589 66.3037 45.1408 66.0399Z" fill="#333333"/>
<path d="M50.4692 65.9168H50.7074L53.0164 73.9915H53.0402L55.373 65.9168H55.6112L53.1832 74.3708H52.8734L50.4692 65.9168Z" fill="#333333"/>
<path fill-rule="evenodd" clip-rule="evenodd" d="M50.2696 65.7675H50.82L53.028 73.4893L55.2588 65.7675H55.8094L53.2956 74.5201H52.7588L50.2696 65.7675ZM52.9632 74.1409L52.9862 74.2215H53.0688L53.092 74.1409H52.9632Z" fill="#333333"/>
<path d="M1.82344 80.1844L1.72218 80.6249H0.0664062L0.173616 80.1844H1.82344Z" fill="#333333"/>
<path d="M6.96944 78.4956C6.91307 78.2865 6.8261 78.0869 6.71135 77.903C6.56046 77.6561 6.4473 77.6008 6.02641 77.6008H5.24219C5.00991 77.6008 4.98608 77.6225 4.98608 77.8536V79.6136H5.92118C6.46119 79.6136 6.50487 79.5187 6.62002 78.9795H6.86223V80.613H6.61208C6.5148 80.0758 6.44928 79.9513 5.92118 79.9513H4.98608V81.2984C4.98608 81.9759 5.05756 82.0115 5.76037 82.0688V82.2979H3.5487V82.0688C4.17011 82.0214 4.2396 81.97 4.2396 81.2984V78.2763C4.2396 77.6047 4.16415 77.5672 3.5487 77.508V77.2808H6.03434C6.72524 77.2808 7.01114 77.2808 7.14217 77.265C7.14217 77.5159 7.18187 78.0768 7.22158 78.462L6.96944 78.4956Z" fill="#333333"/>
<path d="M10.551 77.1722C10.8866 77.1681 11.2197 77.2314 11.5301 77.3583C11.8406 77.4852 12.1221 77.6732 12.3579 77.9109C12.5937 78.1486 12.7788 78.4312 12.9023 78.7417C13.0257 79.0523 13.0849 79.3844 13.0764 79.7182C13.0764 81.3715 11.9388 82.4026 10.5073 82.4026C10.1654 82.4096 9.82565 82.3476 9.50853 82.2203C9.19141 82.093 8.90352 81.9031 8.66227 81.662C8.42103 81.4208 8.23143 81.1336 8.10495 80.8175C7.97846 80.5014 7.91771 80.163 7.92638 79.8229C7.91843 78.4561 8.89324 77.1722 10.551 77.1722ZM10.4041 77.4685C9.55039 77.4685 8.79794 78.1993 8.79794 79.6274C8.79794 81.0555 9.53848 82.1023 10.6284 82.1023C11.5298 82.1023 12.2167 81.4071 12.2167 79.9296C12.2107 78.3316 11.3968 77.4685 10.4041 77.4685Z" fill="#333333"/>
<path d="M19.084 77.508C18.5936 77.5415 18.4249 77.6699 18.407 78.0097C18.3951 78.1973 18.3812 78.5094 18.3812 79.1948V80.06C18.3812 80.8224 18.2839 81.4426 17.8372 81.9048C17.4739 82.2821 16.9438 82.4046 16.4058 82.4046C15.9477 82.4255 15.4951 82.2987 15.1153 82.0431C14.6547 81.6915 14.4304 81.17 14.4304 80.2654V78.304C14.4304 77.6087 14.3668 77.5613 13.7534 77.5139V77.2867H15.8539V77.5139C15.2424 77.5554 15.1788 77.6166 15.1788 78.304V80.2515C15.1788 81.33 15.693 81.9384 16.6043 81.9384C17.6724 81.9384 18.0298 81.2609 18.0298 80.0027V79.1849C18.0298 78.5094 18.006 78.219 17.9921 77.9998C17.9662 77.6502 17.7816 77.5297 17.2138 77.4981V77.2709H19.084V77.508Z" fill="#333333"/>
<path d="M24.8435 77.508C24.3511 77.5633 24.1923 77.6443 24.1685 77.9978C24.1685 78.2546 24.1407 78.5667 24.1407 79.2758V82.3591H23.821L20.5234 78.3632V80.2555C20.5234 80.9449 20.5452 81.2826 20.5611 81.5058C20.5809 81.889 20.7596 82.0154 21.3274 82.0589V82.288H19.4394V82.0589C19.9119 82.0214 20.1005 81.9048 20.1342 81.5315C20.1581 81.2787 20.174 80.9389 20.174 80.2496V78.3099C20.1845 78.2157 20.176 78.1204 20.1491 78.0295C20.1222 77.9386 20.0773 77.854 20.0171 77.7805C19.8722 77.583 19.7054 77.5455 19.3361 77.508V77.2808H20.5591L23.7833 81.0732V79.2758C23.7833 78.5667 23.7694 78.2487 23.7456 78.0097C23.7218 77.664 23.5471 77.5475 22.9296 77.508V77.2808H24.8435V77.508Z" fill="#333333"/>
<path d="M27.6071 77.2808C28.6811 77.2808 29.378 77.4941 29.8604 77.9504C30.0787 78.1664 30.2498 78.4249 30.3628 78.7097C30.4759 78.9946 30.5286 79.2996 30.5176 79.6057C30.5318 80.0015 30.4516 80.3951 30.2836 80.7542C30.1155 81.1134 29.8644 81.4278 29.5507 81.6717C28.965 82.1102 28.2166 82.288 27.2755 82.288H25.4153V82.0589C26.0664 82.0016 26.1042 81.9443 26.1042 81.3103V78.2645C26.1042 77.6047 26.0128 77.5672 25.4153 77.508V77.2808H27.6071ZM26.8507 81.251C26.8507 81.8238 27.079 81.9897 27.6567 81.9897C28.9889 81.9897 29.6818 81.0811 29.6818 79.7143C29.6818 78.8946 29.4098 78.2546 28.8439 77.8911C28.4514 77.6504 27.994 77.5353 27.5336 77.5613C27.3286 77.5368 27.121 77.5747 26.938 77.6699C26.8685 77.7193 26.8407 77.8121 26.8407 78.0986L26.8507 81.251Z" fill="#333333"/>
<path d="M33.9046 82.288V82.0589C34.4049 81.9957 34.4545 81.9187 34.3473 81.6184C34.2401 81.3182 34.1011 80.9527 33.9502 80.4984H32.3044C32.1873 80.8263 32.0721 81.1246 31.9689 81.4268C31.8001 81.9246 31.9232 81.9878 32.5526 82.0589V82.288H30.7419V82.0589C31.2303 81.9977 31.3534 81.9423 31.6234 81.2569L33.2276 77.2235L33.4976 77.1722C33.988 78.4936 34.52 79.9375 35.0104 81.2589C35.2645 81.9384 35.336 81.9977 35.876 82.0589V82.288H33.9046ZM33.1462 78.2586C32.902 78.9005 32.6479 79.5681 32.4235 80.1686H33.8311L33.1462 78.2586Z" fill="#333333"/>
<path d="M39.6502 78.5114C39.5911 78.2813 39.5031 78.0597 39.3881 77.8517C39.261 77.6541 39.1896 77.5968 38.7548 77.5968H38.0301V81.3261C38.0301 81.9344 38.0956 82.0115 38.8243 82.0589V82.288H36.5133V82.0589C37.2221 82.0115 37.2856 81.9404 37.2856 81.3261V77.5968H36.6225C36.1957 77.5968 36.0726 77.6482 35.9376 77.8694C35.8267 78.0743 35.7376 78.2901 35.6715 78.5133H35.4273C35.475 78.0274 35.5226 77.5257 35.5445 77.1011H35.7331C35.8502 77.2848 35.9316 77.2808 36.156 77.2808H39.2273C39.3038 77.2912 39.3817 77.2798 39.4519 77.248C39.5222 77.2162 39.582 77.1652 39.6243 77.1011H39.8229C39.8229 77.4566 39.8546 78.0334 39.8944 78.4837L39.6502 78.5114Z" fill="#333333"/>
<path d="M40.49 82.288V82.0589C41.1173 81.9937 41.1809 81.9601 41.1809 81.3063V78.2704C41.1809 77.6107 41.1153 77.5731 40.49 77.508V77.2808H42.6282V77.508C41.9968 77.5751 41.9313 77.6107 41.9313 78.2704V81.3063C41.9313 81.9641 41.9948 81.9917 42.6282 82.0589V82.288H40.49Z" fill="#333333"/>
<path d="M45.9596 77.1722C46.2952 77.1681 46.6282 77.2314 46.9387 77.3583C47.2492 77.4852 47.5307 77.6732 47.7665 77.9109C48.0022 78.1486 48.1874 78.4312 48.3108 78.7417C48.4343 79.0523 48.4935 79.3844 48.4849 79.7182C48.4849 81.3715 47.3453 82.4026 45.904 82.4026C45.5622 82.4093 45.2225 82.3472 44.9055 82.2198C44.5885 82.0924 44.3008 81.9024 44.0596 81.6613C43.8184 81.4203 43.6288 81.1331 43.5022 80.8171C43.3756 80.5012 43.3147 80.163 43.323 79.8229C43.325 78.4561 44.3018 77.1722 45.9596 77.1722ZM45.8107 77.4685C44.957 77.4685 44.2065 78.1993 44.2065 79.6274C44.2065 81.0555 44.947 82.1023 46.037 82.1023C46.9364 82.1023 47.6253 81.4071 47.6253 79.9296C47.6173 78.3316 46.7974 77.4685 45.8047 77.4685H45.8107Z" fill="#333333"/>
<path d="M54.5601 77.508C54.0677 77.5633 53.9089 77.6443 53.8851 77.9978C53.8751 78.2546 53.8573 78.5667 53.8573 79.2758V82.3591H53.5476L50.2499 78.3632V80.2555C50.2499 80.9449 50.2717 81.2826 50.2876 81.5058C50.3055 81.889 50.4862 82.0154 51.054 82.0589V82.288H49.1659V82.0589C49.6384 82.0214 49.827 81.9048 49.8608 81.5315C49.8846 81.2787 49.9005 80.9389 49.9005 80.2496V78.3099C49.911 78.2157 49.9025 78.1204 49.8756 78.0295C49.8487 77.9386 49.8038 77.854 49.7436 77.7805C49.5987 77.583 49.4319 77.5455 49.0627 77.508V77.2808H50.2856L53.5098 81.0732V79.2758C53.5098 78.5667 53.4959 78.2487 53.4721 78.0097C53.4483 77.664 53.2736 77.5475 52.6561 77.508V77.2808H54.57L54.5601 77.508Z" fill="#333333"/>
<path d="M58.3699 80.1844L58.2687 80.6249H56.6129L56.7201 80.1844H58.3699Z" fill="#333333"/>
</svg>
