<svg width="88" height="76" viewBox="0 0 88 76" fill="none" xmlns="http://www.w3.org/2000/svg">
<path d="M40.9359 21.5273C51.3492 21.5273 60.7552 27.8251 64.6288 37.3935C64.7377 37.663 65.0573 37.9775 64.812 38.2418C64.6254 38.4423 64.2712 38.2591 63.9913 38.2056C62.3026 37.8587 60.5966 37.6021 58.8806 37.4367C58.3622 37.3935 57.9562 37.1395 57.5484 36.8734C56.9126 36.4588 56.339 36.4985 55.7308 36.9667C54.7736 37.7028 54.435 37.6717 53.4519 36.9115C52.4688 36.1512 52.1267 36.1789 51.2179 37.0307C50.411 37.7874 49.9307 37.8272 49.0029 37.2155C47.536 36.2445 47.2993 36.2722 46.3179 37.701C45.8756 38.342 45.3486 38.4647 44.6869 38.1485C44.2999 37.9619 43.9405 37.7166 43.5569 37.5231C42.712 37.1015 42.1419 37.2829 41.6961 38.0984C40.7061 39.9126 40.7061 39.9126 38.7157 39.0988C37.6669 38.6703 37.0173 38.9502 36.613 40.0111C36.5214 40.253 36.4696 40.5087 36.3763 40.7506C36.0895 41.4918 35.5521 41.7423 34.7954 41.5212C34.5207 41.4417 34.2563 41.3225 33.9816 41.2395C32.8862 40.9078 32.3644 41.1825 32.0292 42.2572C31.5333 43.845 31.2724 43.9971 29.6742 43.6256C28.3836 43.3267 28.0173 43.5133 27.5646 44.7089C27.1241 45.8734 26.8649 46.0082 25.6969 45.6903C24.3873 45.3326 24.1074 45.4259 23.494 46.6077C23.1657 47.2401 22.7113 47.4353 22.0841 47.1917C21.1632 46.8358 20.5049 47.1485 19.7344 47.7239C18.5474 48.6119 17.039 48.5774 15.6119 48.6448C15.1661 48.6655 15.3268 48.2163 15.3182 47.9709C15.1304 41.592 17.0408 35.9186 21.0492 30.9506C25.9077 24.9293 33.1436 21.5256 40.9359 21.5273Z" fill="#414042"/>
<path d="M0.371094 51.1477C0.642354 50.9473 0.868694 51.1598 1.08467 51.2479C5.45939 53.0361 10.0086 53.5337 14.6961 53.2124C17.1052 53.0608 19.5007 52.7392 21.8646 52.25C22.5004 52.1135 23.074 51.9044 23.4386 51.3118C23.9068 50.5741 24.5548 50.4289 25.3841 50.714C26.5572 51.1166 26.6505 51.0492 27.1516 49.9676C27.5369 49.1366 28.0621 48.9569 29.0798 49.3024C30.2892 49.7153 30.2892 49.7154 30.7333 48.5197C31.0909 47.5574 31.6905 47.2446 32.6977 47.5072C32.9465 47.5729 33.185 47.68 33.4321 47.756C34.099 47.953 34.4946 47.7872 34.6864 47.0338C35.1425 45.2473 35.6609 45.0037 37.4111 45.6032C38.7208 46.0542 38.9074 45.9592 39.3117 44.6357C39.8145 43.0168 40.4866 42.6919 42.0917 43.2967C42.3059 43.3779 42.515 43.4694 42.7309 43.5507C43.7676 43.9187 43.9991 43.8081 44.4224 42.7714C44.9528 41.467 45.644 41.1905 46.926 41.771C47.1609 41.8782 47.3907 41.9991 47.6171 42.1166C48.3255 42.4622 48.8645 42.3153 49.3017 41.6294C50.1655 40.2644 50.5871 40.1832 52.0367 41.0022C53.1166 41.6121 53.2565 41.5914 54.0859 40.7016C54.7355 40.0104 55.3264 39.9379 56.1454 40.4648C57.3652 41.251 57.3686 41.2579 58.4744 40.4424C59.0895 39.9897 59.7029 39.9655 60.2903 40.4424C60.7802 40.8392 61.3879 41.0622 62.0181 41.0765C65.6689 41.3028 69.2747 41.8505 72.7666 42.977C73.0724 43.0738 73.4577 43.0703 73.6546 43.485C73.0568 43.5403 72.5713 43.2448 72.0495 43.1394C68.9395 42.4984 65.8209 42.5986 62.6936 42.9667C62.2479 43.0185 61.9732 43.2984 61.7036 43.5956C61.1196 44.2435 60.4821 44.3575 59.7028 43.9118C58.7889 43.3934 58.4658 43.4919 57.8593 44.3817C57.1976 45.351 56.7501 45.4667 55.6892 44.9363C54.4314 44.3074 54.1964 44.3834 53.5433 45.6274C53.0371 46.5933 52.4877 46.8023 51.5011 46.3963C51.2903 46.3099 51.0916 46.1907 50.8808 46.0957C50.017 45.7035 49.6904 45.8313 49.357 46.7004C49.274 46.9146 49.2187 47.1392 49.1271 47.3483C48.7194 48.283 48.049 48.5577 47.0987 48.1776C45.0807 47.3794 45.0807 47.3794 44.3447 49.3681C43.9905 50.3287 43.3495 50.6276 42.3733 50.2648C41.9172 50.092 41.4817 49.8709 41.0273 49.6946C40.3587 49.4337 39.9095 49.6618 39.6935 50.3443C39.6227 50.562 39.5708 50.7866 39.4965 51.0043C39.1164 52.1118 38.472 52.4107 37.3558 51.9943C37.1139 51.9044 36.8824 51.7835 36.6405 51.6954C35.7766 51.3844 35.4518 51.5399 35.1339 52.3865C34.6622 53.6512 34.1525 53.8914 32.8878 53.4404C31.5367 52.9584 31.5367 52.9584 30.7264 54.1851C30.2633 54.8762 29.6759 55.1077 28.8673 54.6602C27.9153 54.1333 27.2553 54.2214 26.5883 55.1181C26.0804 55.8092 25.2701 55.7954 24.4355 55.1578C23.8222 54.6879 23.2382 54.5548 22.4538 54.6395C15.0641 55.4758 7.87827 54.8123 1.06047 51.59C0.853141 51.4932 0.645796 51.3947 0.443647 51.2859C0.421186 51.2652 0.402194 51.2047 0.371094 51.1477Z" fill="#414042"/>
<path d="M78.5181 49.7608C76.1483 49.4557 73.7508 49.4319 71.3754 49.6899C68.9751 49.9536 66.5945 50.3726 64.2484 50.9443C63.8469 51.0227 63.4914 51.2537 63.2566 51.5888C62.8489 52.1969 62.2856 52.2799 61.6654 52.0587C60.9224 51.7857 60.3868 51.9257 60.0326 52.6703C59.6784 53.415 59.0201 53.4288 58.3325 53.2923C56.8189 52.9934 56.7775 52.9917 56.1244 54.3135C55.8099 54.9579 55.3469 55.2015 54.6661 55.0771C54.3845 55.0253 54.1046 54.9596 53.8282 54.8854C52.6861 54.5761 52.363 54.7454 51.9639 55.8823C51.4456 57.3353 51.0585 57.5168 49.5778 56.976C48.1438 56.4576 47.9123 56.5717 47.5252 58.0385C47.1935 59.2946 46.7167 59.5659 45.4416 59.2221C45.1928 59.1547 44.9457 59.0769 44.6969 59.0061C43.4874 58.6605 43.0831 58.8523 42.6235 59.9823C42.1363 61.1606 41.7165 61.3455 40.4777 60.9222C38.8276 60.3589 38.7326 60.371 37.6994 61.7861C37.1932 62.4772 36.5211 62.5705 35.8783 62.2077C34.7622 61.5822 33.9018 61.6893 33.088 62.7053C32.5852 63.3273 31.8664 63.3549 31.2133 62.9368C30.3495 62.3908 29.5668 62.1403 28.7288 62.9644C28.5336 63.1562 28.1828 63.272 27.9237 63.075C26.3479 61.8759 24.4681 62.1489 22.6937 62.0211C17.2495 61.634 12.0558 60.2397 7.00031 58.2562C6.50444 58.0627 6.01375 57.8571 5.44531 57.6273C5.84961 57.3319 6.10531 57.5599 6.34375 57.6463C10.836 59.2566 15.4647 60.2173 20.2506 60.2898C21.714 60.3123 23.1878 60.2155 24.6426 60.1568C25.078 60.1378 25.5065 60.0462 25.8071 59.6816C26.3134 59.07 26.9112 59.0009 27.5694 59.4018C28.2277 59.8026 28.7789 59.6575 29.1832 59.013C29.7015 58.1647 30.4065 58.1042 31.2686 58.4342C32.5109 58.9093 32.6629 58.8316 33.3005 57.6602C33.8067 56.7323 34.2801 56.563 35.2874 56.95C35.4758 57.0226 35.6606 57.1055 35.849 57.1712C36.7128 57.4718 37.0428 57.3181 37.3832 56.4801C38.0311 54.8733 38.3197 54.7523 39.9749 55.3311C41.2051 55.77 41.3934 55.6767 41.8201 54.3808C42.2884 52.971 42.9484 52.6531 44.3893 53.1265C44.607 53.199 44.8247 53.2733 45.0459 53.3373C45.972 53.5999 46.3677 53.4081 46.7236 52.5235C47.3784 50.8994 47.6531 50.775 49.2997 51.359C50.5471 51.803 50.9031 51.6665 51.513 50.5123C52.0071 49.5759 52.4891 49.3945 53.4861 49.7677C55.0411 50.3465 55.0411 50.3499 56.1278 49.0766C56.6738 48.439 57.3131 48.4097 57.9835 48.8001C58.8353 49.2977 59.5834 49.3496 60.2831 48.5289C60.4383 48.3512 60.6509 48.2335 60.8838 48.1963C61.1168 48.159 61.3554 48.2046 61.5582 48.325C62.4342 48.7742 63.3448 48.6844 64.2588 48.598C68.7314 48.1622 73.2444 48.4151 77.6404 49.3478C77.9496 49.4135 78.2831 49.4567 78.5181 49.7608Z" fill="#414042"/>
<path d="M13.2812 65.3163C13.6268 65.1521 13.9378 65.3854 14.2315 65.489C19.9176 67.4019 25.9459 68.0822 31.9153 67.4846C32.3504 67.462 32.7587 67.2675 33.0505 66.9438C33.5895 66.3253 34.2167 66.2527 34.9078 66.6225C35.63 67.0112 36.1328 66.8315 36.5734 66.1508C37.1487 65.2575 37.5271 65.1867 38.524 65.6324C39.5953 66.1197 39.8078 66.0454 40.3296 64.9983C40.8099 64.036 41.1779 63.8978 42.1956 64.2951C43.6331 64.8584 43.8128 64.7858 44.4227 63.4053C44.9012 62.3237 45.3263 62.1199 46.4562 62.4412C46.7327 62.519 47.0091 62.6002 47.2787 62.6952C48.0182 62.9578 48.5037 62.6589 48.8337 62.0041C48.9857 61.6948 49.0963 61.3631 49.2691 61.0659C49.5542 60.5735 49.9826 60.3264 50.5701 60.4595C50.9623 60.5476 51.3545 60.6426 51.745 60.7342C52.4447 60.907 52.8853 60.6703 53.1358 59.9584C53.4952 58.9408 53.8684 58.7818 54.9085 59.0652C56.1888 59.4107 56.1992 59.4107 56.9145 58.2929C57.2721 57.7313 57.7507 57.4722 58.3727 57.7037C59.2055 58.0112 59.983 57.9058 60.8089 57.6605C65.77 56.1657 70.9269 55.422 76.1083 55.4541C78.2947 55.45 80.4765 55.6554 82.6238 56.0675C82.8691 56.1176 83.1421 56.0882 83.339 56.413C82.5926 56.5461 81.9119 56.2886 81.2225 56.2541C77.4802 56.0658 73.8311 56.6411 70.2201 57.5465C66.8282 58.4262 63.5082 59.5629 60.2888 60.9467C59.8551 61.1195 59.4249 61.3268 59.2521 61.7916C58.9982 62.4602 58.5023 62.6227 57.8699 62.5104C57.0475 62.3669 56.4773 62.5587 56.2424 63.4606C56.08 64.0774 55.6238 64.3003 54.969 64.1517C53.6248 63.8563 53.5989 63.8649 53.1911 65.121C52.97 65.8121 52.5311 66.016 51.8745 65.9089C51.6759 65.8761 51.4858 65.8052 51.2888 65.7672C50.1934 65.5547 49.9602 65.6791 49.4989 66.7106C48.9805 67.8492 48.6833 67.9943 47.486 67.6626C45.8723 67.2151 45.8532 67.2013 44.8943 68.5783C44.4296 69.2418 43.8421 69.2694 43.2339 68.9601C42.2353 68.4539 41.4181 68.3761 40.7304 69.4785C40.4021 69.9968 39.7991 69.9294 39.3344 69.6271C38.5672 69.1312 37.9366 69.1087 37.299 69.8534C36.8827 70.3441 36.309 70.2871 35.8149 69.9329C34.951 69.3126 33.9904 69.1934 32.9537 69.2279C26.2689 69.4491 19.8934 67.9839 13.6804 65.6497C13.5162 65.5858 13.3054 65.591 13.2812 65.3163Z" fill="#414042"/>
<path d="M21.5912 7.27812C23.0357 5.2238 24.4766 3.22304 25.8606 1.18253C26.2286 0.640013 26.6104 0.387761 27.2652 0.456872C27.81 0.509573 28.3585 0.509573 28.9032 0.456872C29.5183 0.401583 29.6772 0.62965 29.672 1.22919C29.6461 4.82641 29.6582 8.42364 29.6582 12.0226C29.6582 12.7707 29.6375 13.5188 29.6582 14.2687C29.6755 14.7369 29.5407 14.9598 29.0328 14.9339C28.2276 14.9028 27.419 14.8976 26.6139 14.9339C26.0213 14.9615 25.8813 14.7006 25.8917 14.1633C25.9383 11.7772 25.9573 9.38947 25.985 7.00168C25.985 6.75288 25.985 6.50408 25.985 6.03758C24.8792 7.66514 23.865 9.11129 22.9078 10.5937C22.5432 11.1587 22.1476 11.4282 21.4478 11.385C21.238 11.386 21.0317 11.3315 20.8497 11.2271C20.6676 11.1228 20.5164 10.9722 20.4112 10.7907C19.4125 9.28234 18.3845 7.793 17.2165 6.07559V7.16928C17.2165 9.4724 17.1992 11.7755 17.2459 14.0804C17.2597 14.7801 17.0299 14.9892 16.363 14.9443C15.7026 14.8985 15.0399 14.8985 14.3795 14.9443C13.7644 14.984 13.5156 14.8112 13.5156 14.1357C13.5433 9.84732 13.5433 5.55899 13.5156 1.27065C13.5156 0.607187 13.7541 0.536346 14.3519 0.44823C16.128 0.187336 17.2787 0.809335 18.1858 2.38161C19.1793 4.07828 20.4336 5.62983 21.5912 7.27812Z" fill="#414042"/>
<path d="M87.8522 62.2632C87.346 62.436 86.8882 62.17 86.4182 62.1164C80.4591 61.4477 74.8265 62.8075 69.2908 64.8134C65.0283 66.3563 61.1201 68.6145 57.1169 70.6879C49.646 74.5598 41.7155 76.0716 33.3272 75.1386C29.2437 74.6662 25.2234 73.7532 21.3364 72.4156C21.1049 72.3362 20.8181 72.3327 20.6211 72.0373C20.9787 71.8265 21.2776 72.0373 21.5645 72.1237C26.8013 73.7132 32.1402 74.3007 37.5878 73.6787C38.6521 73.5577 39.7873 73.6476 40.6978 72.8718C40.8973 72.7514 41.1339 72.7084 41.363 72.7508C42.2148 72.858 42.9992 72.9236 43.5867 72.0597C43.8164 71.7228 44.321 71.8161 44.727 71.9077C45.4803 72.0805 46.0712 71.9457 46.396 71.1285C46.6448 70.5013 47.1217 70.3302 47.8007 70.5376C49.1622 70.9505 49.1829 70.9315 49.8066 69.7203C50.1798 68.9929 50.7034 68.7113 51.4947 68.9653C52.5953 69.3108 53.1482 69.3869 53.6112 68.1446C53.822 67.5831 54.3732 67.5865 54.869 67.6366C55.6396 67.7161 56.3756 67.7818 56.7177 66.8436C56.765 66.7721 56.8281 66.7125 56.9021 66.6694C56.9761 66.6262 57.0591 66.6007 57.1445 66.5948C59.3215 66.5084 61.0856 65.2316 63.0449 64.5335C68.8104 62.4758 74.7194 61.2853 80.8496 61.313C83.0074 61.3044 85.1606 61.5122 87.2769 61.9332C87.4998 61.9937 87.752 61.973 87.8522 62.2632Z" fill="#414042"/>
<path d="M44.2684 14.9247C42.3955 14.9247 42.3678 14.9368 41.7268 13.1348C41.4763 12.4229 41.1307 12.162 40.3653 12.2052C39.1041 12.2795 37.8324 12.2415 36.5642 12.2173C36.1081 12.2087 35.8369 12.3037 35.6641 12.7875C35.4153 13.4786 35.3703 14.4064 34.7829 14.79C34.1661 15.1943 33.2728 14.9075 32.5005 14.9178C31.0112 14.9386 31.0043 14.9178 31.5848 13.5201C33.278 9.43387 34.9937 5.35632 36.6541 1.25286C36.9184 0.59976 37.2536 0.425257 37.9205 0.433896C40.2686 0.470179 40.2651 0.445991 41.1843 2.6489C42.7635 6.44079 44.3456 10.2327 45.9305 14.0246C46.302 14.9144 46.2968 14.9161 45.3016 14.9213L44.2684 14.9247ZM38.6376 4.80516C38.0812 6.32042 37.5836 7.66981 37.0826 9.02093C36.9754 9.31293 37.0826 9.44251 37.3936 9.44078C38.1935 9.43215 38.9952 9.43042 39.7952 9.44078C40.1597 9.44078 40.2582 9.2801 40.1407 8.96392C39.6742 7.63353 39.1835 6.30487 38.6376 4.80516Z" fill="#414042"/>
<path d="M63.6518 6.32925C64.5157 6.32925 65.3796 6.30506 66.2435 6.33789C66.8015 6.36035 66.8948 6.11673 66.7393 5.66233C66.3091 4.39069 65.4452 3.57691 64.1373 3.26245C62.527 2.87543 60.9876 3.16051 59.5259 3.86026C58.8486 4.18508 58.662 4.03304 58.7276 3.32638C58.7424 3.0386 58.7424 2.75027 58.7276 2.46249C58.7276 0.954146 58.7276 0.924771 60.1738 0.580944C62.641 -0.00131625 65.1066 -0.110164 67.3458 1.30661C70.0843 3.03439 70.7737 5.76081 70.4869 8.75332C70.0791 13.0071 67.0866 15.3672 62.5391 15.2031C61.4456 15.1827 60.3611 15.0016 59.3203 14.6658C58.9021 14.5241 58.6793 14.3098 58.7311 13.8606C58.7328 13.8318 58.7328 13.803 58.7311 13.7742C58.7484 13.0831 58.5048 12.176 58.852 11.7683C59.1993 11.3605 59.9906 12.0499 60.6213 12.1415C61.9171 12.3298 63.2008 12.4127 64.4569 11.9687C64.965 11.8022 65.4273 11.5196 65.807 11.1432C66.1867 10.7667 66.4734 10.307 66.6443 9.80035C66.8465 9.24401 66.7584 9.02803 66.126 9.04185C64.5433 9.07123 62.959 9.01594 61.3763 9.06605C60.6714 9.08851 60.5125 8.83452 60.5125 8.1797C60.5297 6.3258 60.5124 6.32407 62.3577 6.32407L63.6518 6.32925Z" fill="#414042"/>
<path d="M51.3701 9.18319C51.3701 10.8522 51.3529 12.523 51.3805 14.1937C51.3805 14.7604 51.1905 14.9643 50.6289 14.9367C49.8825 14.9021 49.1327 14.909 48.3828 14.9367C47.8783 14.9557 47.6623 14.795 47.6641 14.2456C47.679 9.86854 47.679 5.49151 47.6641 1.11449C47.6641 0.565053 47.8766 0.445835 48.3794 0.449291C51.0286 0.468872 53.6779 0.468872 56.3271 0.449291C56.8023 0.449291 56.963 0.580603 56.9802 1.07647C57.0632 3.40897 57.0787 3.40897 54.7531 3.40897C53.9186 3.40897 53.0824 3.44871 52.2496 3.39687C51.5827 3.35368 51.3408 3.5541 51.3615 4.25212C51.403 5.90215 51.3719 7.54354 51.3701 9.18319Z" fill="#414042"/>
</svg>
