<svg width="64" height="69" viewBox="0 0 64 69" fill="none" xmlns="http://www.w3.org/2000/svg">
<path d="M0.0429688 16.922L4.19278 15.1137L7.98174 13.4581L12.1095 11.6608L15.8963 10.0052L19.9999 8.21462L23.8351 6.5391L27.9145 4.7684L31.7276 3.10395L34.9511 1.68739L38.4716 0.160158C38.5178 0.138025 38.5662 0.11368 38.6146 0.0937598C38.7577 0.0317854 38.8347 0.0362154 38.8347 0.235419C38.8215 0.536437 38.8347 0.837453 38.8347 1.13847C38.8347 3.7591 38.8347 6.379 38.8347 8.99815C38.851 9.09857 38.8411 9.20151 38.8061 9.29695C38.366 9.0889 37.9369 8.87863 37.4991 8.67943C36.3822 8.18911 35.2047 7.85259 33.9984 7.67898C33.3769 7.58084 32.7484 7.53421 32.1193 7.53954C31.2242 7.53577 30.3307 7.61579 29.4503 7.77859C28.1411 8.03363 26.8748 8.47561 25.6899 9.09111C24.5608 9.68511 23.5165 10.4296 22.5853 11.3045C20.2721 13.4687 18.765 16.3642 18.3145 19.5095C18.172 20.4712 18.138 21.4462 18.2132 22.4156C18.344 24.4105 18.9025 26.3533 19.8503 28.1106C20.6054 29.5001 21.5829 30.755 22.7437 31.8246C22.9879 32.046 23.2542 32.2518 23.516 32.4577C23.6855 32.5883 23.6921 32.6436 23.472 32.7388C21.1118 33.7569 18.7545 34.7825 16.4002 35.8154C14.1999 36.7789 11.9995 37.7439 9.79921 38.7104C7.78811 39.5958 5.77481 40.4546 3.76371 41.3311C2.61955 41.8298 1.47831 42.3323 0.340011 42.8384C0.254665 42.8831 0.158855 42.9038 0.0627709 42.8982L0.0429688 16.922Z" fill="#414042"/>
<path d="M0.0439594 58.9864C0.112169 58.5924 0.171577 58.1962 0.248588 57.8022C0.512612 56.4634 1.08959 55.207 1.93183 54.1369C2.92443 52.8474 4.2465 51.8532 5.75691 51.2604C7.26733 50.6677 8.9094 50.4986 10.5079 50.7713C12.1063 51.044 13.6012 51.7482 14.8329 52.8087C16.0646 53.8693 16.9869 55.2463 17.5013 56.7929C17.7409 57.5302 17.8887 58.2945 17.9414 59.0683C18.0885 61.2627 17.4334 63.4355 16.0995 65.1781C14.7655 66.9206 12.8445 68.1128 10.6979 68.5305C10.3215 68.6139 9.93704 68.6555 9.55156 68.6544C9.47675 68.6544 9.39093 68.6323 9.33153 68.7053H8.75284C8.33698 68.6101 7.90791 68.6278 7.48765 68.5548C6.57989 68.4021 5.70155 68.1071 4.88467 67.6805C3.76046 67.0947 2.77272 66.2754 1.98684 65.2768C1.13468 64.2051 0.541859 62.9488 0.255189 61.607C0.169376 61.1998 0.114368 60.7837 0.0351562 60.372L0.0439594 58.9864ZM9.01688 64.3538C9.93699 64.3494 10.8353 64.0717 11.5991 63.5556C12.3629 63.0395 12.9582 62.308 13.3102 61.4528C13.6623 60.5977 13.7555 59.657 13.578 58.7488C13.4006 57.8406 12.9605 57.0053 12.3129 56.3477C11.6653 55.6902 10.8391 55.2397 9.93794 55.0528C9.03679 54.8658 8.10081 54.9507 7.24745 55.2969C6.3941 55.643 5.66137 56.235 5.1412 56.9984C4.62103 57.7619 4.3366 58.6629 4.32359 59.5884C4.28398 62.2489 6.4513 64.4269 9.01688 64.3538Z" fill="#414042"/>
<path d="M63.9815 13.0451C63.9815 17.2756 63.9815 21.5061 63.9815 25.7366C63.9951 25.8318 63.9744 25.9287 63.9232 26.0099C63.8719 26.0911 63.7935 26.1511 63.702 26.1792C61.8068 26.9923 59.9145 27.812 58.0252 28.6383C56.3442 29.3731 54.6675 30.1168 52.9865 30.8517C51.3758 31.5533 49.763 32.2439 48.1458 32.9455C46.4647 33.6781 44.7881 34.4218 43.107 35.1589C41.0959 36.0442 39.0804 36.903 37.0693 37.7795C35.3883 38.5121 33.7116 39.258 32.0306 39.9929C30.0195 40.8694 28.0069 41.7429 25.9929 42.6135C25.7993 42.6976 25.6056 42.7839 25.4164 42.8725C25.3086 42.9234 25.2602 42.8946 25.225 42.7817C25.1998 42.688 25.1887 42.591 25.192 42.494V33.9327C25.192 33.6139 25.192 33.6184 25.4648 33.7645C26.7076 34.4335 28.0435 34.9103 29.4276 35.1788C30.5932 35.4125 31.7848 35.487 32.9701 35.4001C36.0089 35.1829 38.8928 33.9681 41.1788 31.9425C43.4649 29.9168 45.0266 27.1922 45.6242 24.1872C45.862 22.9549 45.9316 21.6956 45.831 20.4444C45.694 18.3949 45.0919 16.4043 44.0708 14.6254C43.3923 13.4243 42.5436 12.329 41.5514 11.374C41.2501 11.0791 40.9296 10.8048 40.592 10.5528C40.3478 10.3713 40.372 10.3138 40.636 10.1965L45.2919 8.17567C46.9422 7.45854 48.5924 6.7414 50.2427 6.02427C51.8929 5.30714 53.5336 4.58927 55.1648 3.87066C56.8136 3.15205 58.4631 2.43566 60.1133 1.72148C61.3125 1.19912 62.5073 0.667915 63.7064 0.147772C63.9749 0.0304637 63.9793 0.0415252 63.9793 0.335904L63.9815 13.0451Z" fill="#414042"/>
<path d="M37.3377 58.6647C37.1466 58.854 36.9829 59.0693 36.8514 59.3044C35.9713 60.5373 35.1132 61.7812 34.2462 63.0207L32.6246 65.3336C32.5212 65.4819 32.453 65.555 32.31 65.3336C31.2714 63.8374 30.2196 62.35 29.1723 60.8604L27.6695 58.7223C27.6519 58.698 27.6299 58.6736 27.5771 58.6072V58.9436C27.5771 61.9428 27.5771 64.9441 27.5771 67.9454C27.5771 68.2199 27.5 68.2818 27.2382 68.2796C26.017 68.2641 24.7936 68.2664 23.5725 68.2796C23.3524 68.2796 23.2908 68.2177 23.293 67.9963C23.293 62.4644 23.293 56.9309 23.293 51.396C23.293 51.1747 23.337 51.1061 23.5659 51.1083C24.8245 51.1194 26.0808 51.1083 27.3372 51.1083C27.4062 51.1023 27.4755 51.1154 27.5376 51.1462C27.5996 51.177 27.6521 51.2244 27.6893 51.2832C28.6948 52.7263 29.7114 54.1605 30.7235 55.6037C31.2692 56.3805 31.8237 57.153 32.3562 57.941C32.4442 58.0693 32.4706 58.0472 32.5498 57.941C33.4754 56.6129 34.4047 55.2849 35.3376 53.9569C35.9698 53.0568 36.6013 52.156 37.2321 51.2544C37.2615 51.2061 37.3035 51.1667 37.3535 51.1406C37.4035 51.1145 37.4597 51.1025 37.5159 51.1061C38.8273 51.1061 40.1372 51.1061 41.4457 51.1061C41.6107 51.1061 41.6657 51.1636 41.6547 51.3274C41.6547 51.3695 41.6547 51.416 41.6547 51.4602V67.9321C41.6547 68.2796 41.6547 68.2796 41.3159 68.2796C40.0925 68.2796 38.8713 68.2796 37.6501 68.2796C37.3993 68.2796 37.3245 68.2177 37.3267 67.9609C37.3267 64.9684 37.3267 61.9848 37.3267 58.9857L37.3377 58.6647Z" fill="#414042"/>
<path d="M24.5626 21.451C24.5684 19.9632 25.0135 18.5107 25.8414 17.2779C26.6693 16.045 27.8426 15.0874 29.2125 14.5265C30.5824 13.9657 32.0871 13.8269 33.5355 14.1278C34.984 14.4287 36.3109 15.1558 37.3479 16.2166C38.3848 17.2775 39.0851 18.6244 39.3597 20.0863C39.6344 21.5482 39.471 23.0592 38.8904 24.4276C38.3098 25.7959 37.3382 26.9599 36.0988 27.7718C34.8594 28.5837 33.4082 29.0068 31.9293 28.9875C29.9613 28.963 28.0828 28.1571 26.7029 26.7455C25.323 25.3338 24.5537 23.4308 24.5626 21.451Z" fill="#414042"/>
<path d="M52.7919 59.3698C53.3222 58.6371 53.8547 57.9045 54.3827 57.1697L58.6139 51.3087C58.6474 51.2518 58.695 51.2047 58.7522 51.1721C58.8093 51.1394 58.8739 51.1224 58.9396 51.1227C60.6008 51.1227 62.2599 51.1227 63.9629 51.1227C63.7438 51.4874 63.499 51.8358 63.2302 52.1652C62.1139 53.7131 60.9932 55.2573 59.8681 56.7978C59.208 57.7009 58.5479 58.6061 57.8878 59.5025C57.862 59.5279 57.8415 59.5582 57.8275 59.5917C57.8135 59.6251 57.8063 59.661 57.8063 59.6973C57.8063 59.7336 57.8135 59.7696 57.8275 59.803C57.8415 59.8365 57.862 59.8667 57.8878 59.8921C59.0672 61.5034 60.2356 63.1214 61.4084 64.735C62.2093 65.8416 63.0168 66.9351 63.8287 68.0373C63.8749 68.0993 63.9145 68.1679 63.9585 68.2343C63.9013 68.314 63.8265 68.2786 63.7627 68.2786C62.1807 68.2786 60.5986 68.2786 59.0166 68.2786C58.9345 68.2829 58.8527 68.2646 58.7802 68.2256C58.7077 68.1866 58.6472 68.1284 58.6052 68.0572C56.7085 65.4145 54.8089 62.7732 52.9063 60.1334C52.8915 60.1048 52.8703 60.0801 52.8443 60.0612C52.8183 60.0424 52.7883 60.03 52.7567 60.0249V60.3038C52.7567 62.8514 52.7567 65.3946 52.7567 67.951C52.7567 68.2299 52.6753 68.2852 52.4156 68.2808C51.1945 68.2675 49.9733 68.2697 48.7499 68.2808C48.5299 68.2808 48.4727 68.2166 48.4727 67.9975C48.4727 62.4655 48.4727 56.9321 48.4727 51.3972C48.4727 51.1537 48.5519 51.1072 48.7741 51.1094C50.0041 51.1094 51.2341 51.1205 52.4662 51.1094C52.7039 51.1094 52.7567 51.1803 52.7567 51.4105C52.7567 53.9669 52.7567 56.5256 52.7567 59.082V59.3454L52.7919 59.3698Z" fill="#414042"/>
</svg>
