<svg width="142" height="48" viewBox="0 0 142 48" fill="none" xmlns="http://www.w3.org/2000/svg">
<path d="M72.8046 35.0879C72.1951 34.7307 71.5025 34.5356 70.7942 34.5218C69.8551 34.5218 68.9821 34.8534 67.8744 35.751V46.7057H63.3453V30.9176H67.1336L67.6669 32.6318C69.112 31.371 70.3475 30.6402 72.0273 30.6402C72.8874 30.6412 73.7278 30.8956 74.4412 31.371L72.8046 35.0879ZM119.506 46.7057V23.5469L114.948 24.7558V46.7057H119.506ZM97.6769 42.4655C96.8998 42.9465 96.0102 43.2208 95.0944 43.2617C94.0528 43.2617 93.5855 42.6978 93.5855 41.5385V34.9819H97.6131L98.5659 31.4138H93.5741V26.1339L89.0427 27.336V31.4138H86.1252V34.9774H89.0154V43.2323C89.0154 45.357 90.1414 47.017 93.0954 47.017C94.6705 47.017 97.0205 46.5523 98.8303 45.2577L97.6769 42.4655ZM79.4421 47.0147C76.7251 47.0147 74.6782 46.3832 73.167 45.4539L74.5779 42.2016C75.8654 43.1163 77.4017 43.6256 78.9862 43.6631C80.5293 43.6631 81.4935 43.1669 81.4935 42.2354C81.4935 39.7545 74.1449 40.7446 74.1449 35.433C74.1449 32.5438 76.4926 30.6199 80.3493 30.6199C82.4645 30.6199 83.9415 30.9199 85.2476 31.4184V35.1353C83.8071 34.5692 82.2639 34.0708 80.5544 34.0708C79.2438 34.0708 78.5395 34.4361 78.5395 35.1985C78.5395 37.3569 86.018 36.5517 86.018 42.0392C86.0294 45.6547 82.811 47.017 79.4239 47.017L79.4421 47.0147ZM8.37633 47.0147C5.18523 47.0147 2.90587 45.984 0.984375 44.8202L3.00161 41.0806C4.53105 42.1046 6.70328 43.2617 8.1142 43.2617C9.56615 43.2617 11.4603 42.7903 11.4603 41.1235C11.4603 38.2365 6.21778 37.7201 3.54181 34.7023C2.59995 33.6256 2.0984 32.2397 2.13545 30.8161C2.13545 27.4984 4.78406 24.5754 9.65732 24.5754C12.0051 24.5754 13.9494 25.1753 15.2281 25.9038L15.1597 30.0944C13.2815 29.0975 11.4968 28.2247 9.68924 28.2247C8.04582 28.2247 6.95401 28.9486 6.95401 30.2094C6.95401 33.9941 16.4635 33.6693 16.4635 40.5416C16.4384 44.527 12.8849 47.017 8.35809 47.017L8.37633 47.0147ZM106.434 30.6019C104.285 30.6019 102.204 30.9312 100.018 32.3296L101.397 35.0541C102.636 34.3595 104.036 33.9935 105.461 33.9918C107.041 33.9918 108.451 34.682 108.451 36.3397V36.6014L105.693 36.7074C101.666 36.8404 98.9488 38.5681 98.9488 41.8949C98.9488 45.0232 101.228 47.0147 104.251 47.0147C105.916 47.0484 107.529 46.4411 108.75 45.3209L109.454 46.7035H113.017V36.4502C112.999 32.298 110.649 30.6041 106.416 30.6041L106.434 30.6019ZM108.451 42.7948C107.698 43.2957 106.806 43.5512 105.899 43.5255C104.351 43.5255 103.478 42.761 103.478 41.5678C103.478 40.3747 104.419 39.7048 106.368 39.6372L108.451 39.5718V42.7948ZM32.3324 38.6673C32.3324 33.7911 29.3008 30.6019 24.9404 30.6019C20.1697 30.6019 17.4846 34.4158 17.4846 38.8545C17.4846 43.0136 19.8233 47.0147 25.508 47.0147C27.7361 47.0251 29.9198 46.3986 31.7967 45.2104L30.7847 42.3663C28.984 43.2098 27.8215 43.494 26.267 43.494C24.1495 43.494 22.1277 42.1813 22.0319 40.0544H32.3324V38.6673ZM21.9385 36.9487C21.9385 35.512 22.9824 33.8858 24.8128 33.8858C26.7411 33.8858 27.5936 35.4466 27.6893 36.9487H21.9385ZM62.0552 38.6673C62.0552 33.7911 59.0213 30.6019 54.6609 30.6019C49.8902 30.6019 47.2052 34.4158 47.2052 38.8545C47.2052 43.0136 49.5438 47.0147 55.2308 47.0147C57.4582 47.0251 59.6412 46.3985 61.5172 45.2104L60.5052 42.3663C58.7068 43.2098 57.542 43.494 55.9875 43.494C53.8723 43.494 51.8505 42.1813 51.7548 40.0544H62.0552V38.6673ZM51.659 36.9487C51.659 35.512 52.703 33.8858 54.5333 33.8858C56.4616 33.8858 57.3141 35.4466 57.4098 36.9487H51.659ZM43.6813 30.9131L40.0092 40.9002H39.9431L36.2141 30.9154H31.2907L37.9624 46.7035H41.9809L48.3289 30.9154L43.6813 30.9131Z" fill="#414042"/>
<path d="M140.983 8.83327C140.821 10.4101 140.535 11.9719 140.126 13.5043C139.848 14.5688 139.54 15.5342 139.214 16.4363C139.208 16.4487 139.202 16.4615 139.198 16.4747C138.955 16.6492 138.686 16.7854 138.4 16.8784C137.5 17.1603 136.39 16.901 135.392 16.495C134.616 16.1737 133.868 15.7921 133.153 15.3537V15.3357C133.599 14.2494 133.969 13.1341 134.261 11.9976C134.717 10.324 134.984 8.60531 135.057 6.87329C135.09 6.02502 135.051 5.17549 134.94 4.33367C134.799 3.27812 134.484 2.20002 133.773 1.56624C133.537 1.36221 133.271 1.1949 132.985 1.07004C134.248 0.927977 135.522 0.900045 136.791 0.98659C137.965 1.08583 139.159 1.37002 139.857 2.04665C140.554 2.72328 140.862 3.90287 140.985 5.05991C141.109 6.31476 141.108 7.57856 140.983 8.83327ZM134.733 18.049C133.942 17.7209 133.18 17.3302 132.453 16.8807C130.971 15.9489 129.595 14.8598 128.351 13.6328C127.503 12.8144 126.713 11.9403 125.985 11.0165L125.966 10.994C125.233 11.382 124.532 11.8269 123.869 12.3247C123.017 12.9765 122.235 13.7952 122.032 14.7087C121.968 15.0142 121.953 15.3279 121.989 15.6379C122.609 16.3664 123.309 17.1152 124.102 17.8934C125.244 19.0121 126.476 20.0379 127.785 20.9608C128.818 21.6922 129.918 22.3265 131.07 22.8553C132.139 23.3448 133.329 23.6583 134.272 23.4011C135.216 23.144 136.062 22.2576 136.734 21.3036C137.456 20.2644 138.073 19.1577 138.576 17.9994C138.319 18.1885 138.034 18.3355 137.73 18.4347C136.839 18.7166 135.74 18.455 134.733 18.049ZM122.83 11.003C123.513 10.49 124.237 10.0329 124.995 9.6362C126.552 8.8313 128.194 8.19896 129.891 7.75066C131.031 7.43573 132.189 7.19611 133.361 7.03342H133.379C133.407 6.20468 133.368 5.37502 133.263 4.55244C133.117 3.49689 132.791 2.41655 132.093 1.78728C131.87 1.59119 131.618 1.42927 131.346 1.30687H131.3C130.352 1.46926 129.347 1.69255 128.273 1.9835C126.729 2.39861 125.22 2.93329 123.76 3.5826C122.605 4.09919 121.503 4.72458 120.469 5.45011C119.502 6.12674 118.611 6.99509 118.365 7.93109C118.119 8.8671 118.476 10.0535 118.982 11.1158C119.532 12.2442 120.19 13.3174 120.947 14.3207C120.912 14.0063 120.926 13.6883 120.988 13.378C121.196 12.4668 121.978 11.6548 122.83 11.003Z" fill="#414042"/>
</svg>
